<svg width="589" height="609" viewBox="0 0 589 609" fill="none" xmlns="http://www.w3.org/2000/svg">
<path d="M301.367 266.699C302.387 257.882 299.692 247.123 292.692 240.678C279.591 228.611 257.283 237.118 234.863 240.678C224.835 242.276 217.902 242.386 121.381 223.331C31.1384 205.518 22.2971 202.479 12.9568 210.32C-12.1026 231.339 3.88263 293.075 21.6316 328.125C41.3441 367.057 71.4064 389.207 88.1348 399.678C91.2076 397.559 95.9777 393.644 98.9728 387.388C114.703 354.557 60.0359 301.76 67.8899 294.151C71.0514 291.09 81.0685 298.522 104.031 309.325C104.031 309.325 124.409 318.919 151.743 328.114C205.966 346.382 296.597 307.938 301.367 266.699Z" fill="#353F7E"/>
<path d="M79.3047 576.08C79.3047 576.08 70.9849 591.043 75.4554 604.83C79.9259 618.617 94.8795 594.326 96.1663 586.839C96.9095 582.524 97.6195 577.2 98.0743 573.462C98.4293 570.601 96.3881 567.972 93.515 567.684C88.7893 567.196 82.0669 568.083 79.3047 576.08Z" fill="url(#paint0_linear)"/>
<path d="M82.2555 552.954C82.2555 552.954 88.0794 567.406 84.0082 576.402C81.9781 580.883 78.8721 584.953 80.5915 587.948C81.7452 589.956 84.8513 590.965 87.1808 590.266C91.6513 588.924 92.8272 581.448 93.6592 576.18C94.8905 568.393 93.3597 552.543 93.3597 552.543L82.2555 552.954Z" fill="url(#paint1_linear)"/>
<path d="M346.904 245.015C361.68 257.327 361.325 286.343 351.962 305.731C340.57 329.323 316.065 338.23 284.738 349.1C232.933 367.079 215.761 356.365 183.536 375.121C158.998 389.407 146.185 408.873 135.103 425.71C100.115 478.872 98.3738 535.595 99.6828 563.757C92.6941 564.001 85.7054 564.234 78.7168 564.478C67.3241 538.89 53.3246 496.808 57.0297 445.22C58.5162 424.512 60.9123 395.507 78.7168 364.273C98.3294 329.867 125.563 312.142 145.941 299.22C155.559 293.12 166.208 287.297 261.598 258.026C321.978 239.492 336.254 236.142 346.904 245.015Z" fill="#353F7E"/>
<path d="M235.951 168.992C226.832 164.677 230.548 146.953 223.471 111.471C214.796 67.9913 202.638 61.6801 207.408 43.2235C213.254 20.652 237.237 7.63033 254.265 4.31391C258.015 3.58186 258.414 1.15278 291.938 4.80195C352.328 11.3682 362.889 -8.50807 392.086 4.56902C420.296 17.2024 413.418 37.4891 441.528 53.1506C487.099 78.5505 520.533 36.9789 553.935 59.0292C585.528 79.8815 599.805 144.302 579.704 184.221C556.908 229.475 498.003 227.09 458.534 225.626C450.236 225.316 408.105 222.864 359.084 195.934C331.962 181.038 311.816 163.635 298.571 150.536C295.576 147.996 291.117 145.056 286.114 145.322C280.101 145.633 276.23 150.391 274.333 152.51C264.349 163.646 244.914 173.229 235.951 168.992Z" fill="url(#paint2_linear)"/>
<path d="M242.984 78.9617C232.9 72.7947 205.167 93.7469 188.716 117.649C169.392 145.734 174.883 164.423 159.696 197.62C152.142 214.125 138.165 237.063 110.033 260.222C113.327 265.357 116.622 270.493 119.917 275.617C135.292 273.61 165.01 267.332 189.348 243.817C206.254 227.479 212.977 208.845 225.756 172.232C238.557 135.496 255.585 86.6704 242.984 78.9617Z" fill="url(#paint3_linear)"/>
<path d="M251.215 80.3593C251.215 80.3593 329 40.4847 349.156 99.1597C368.979 156.892 350.187 217.131 361.968 244.904C362.822 246.912 366.383 254.687 366.428 265.258C366.461 273.665 364.265 280.376 363.532 281.884C354.924 299.764 228.973 259.945 200.419 250.772C218.69 211.729 216.593 193.006 214.874 182.103C212.222 165.333 205.966 158.689 206.421 138.18C206.421 138.18 206.931 115.298 220.398 93.1369C222.328 89.9425 224.713 86.5595 251.215 80.3593Z" fill="url(#paint4_linear)"/>
<path d="M262.164 40.762C262.086 44.4333 261.886 64.0989 270.561 67.4818C272.447 68.2139 275.786 68.2028 282.464 68.1695C286.835 68.1473 290.473 67.9477 293.036 67.7702C293.28 71.009 293.213 76.3885 290.451 81.7901C282.719 96.9303 261.476 97.4848 258.436 97.5181C247.72 97.629 236.916 96.3868 234.076 94.9005C229.761 92.6489 226.377 90.974 224.203 89.0441C227.841 86.3377 234.941 79.6716 240.055 76.9652C243.871 74.9354 247.51 73.3161 250.849 72.0072C250.716 68.2472 250.582 64.476 250.449 60.7159C254.354 54.0498 258.259 47.4059 262.164 40.762Z" fill="url(#paint5_linear)"/>
<path d="M264.338 50.1233C264.338 50.1233 265.602 64.2652 252.59 69.3008C240.942 73.8151 226.244 46.3854 230.97 37.6562C232.545 34.7391 237.171 31.3672 241.608 30.6463C244.725 30.136 255.974 32.1104 259.446 42.3147C261.11 39.7193 263.584 38.5879 265.048 39.2534C266.9 40.1075 266.678 43.6679 266.634 44.4776C266.468 47.2727 265.037 49.2581 264.338 50.1233Z" fill="url(#paint6_linear)"/>
<path d="M184.922 260.754L312.227 242.642C313.98 242.397 315.743 243.019 316.941 244.316L321.512 249.241C323.786 251.692 322.388 255.696 319.082 256.196L184.501 276.804L184.922 260.754Z" fill="url(#paint7_linear)"/>
<path d="M40.2236 215.755L171.011 193.228C174.883 192.563 178.821 193.982 181.361 196.966L241.752 267.664L103.077 288.65C99.2723 289.227 95.4341 287.84 92.8605 284.979L37.6168 223.187C35.2872 220.547 36.7404 216.354 40.2236 215.755Z" fill="url(#paint8_linear)"/>
<path opacity="0.3" d="M181.372 196.966C178.821 193.982 174.883 192.563 171.023 193.228L168.161 193.727C168.549 198.02 167.994 202.113 166.02 205.706C159.852 216.953 145.353 213.537 137.377 225.716C128.614 239.092 141.293 250.572 133.539 262.939C125.374 275.961 107.015 270.171 89.2552 280.908L92.8938 284.979C95.4563 287.851 99.2945 289.227 103.111 288.65L241.786 267.664L181.372 196.966Z" fill="url(#paint9_linear)"/>
<path d="M299.958 234.268C297.484 230.252 295.01 226.226 292.537 222.211C309.72 213.748 333.404 201.569 357.376 187.427C361.125 185.209 365.574 182.503 366.328 177.966C368.436 165.222 338.085 158.278 322.211 134.387C307.534 112.292 306.658 77.8859 317.574 71.7078C340.292 58.8415 447.064 149.494 424.988 200.615C412.509 229.498 359.672 243.873 299.958 234.268Z" fill="url(#paint10_linear)"/>
<path d="M292.537 222.211C279.979 218.351 267.544 227.18 266.745 227.757C264.471 229.42 261.232 232.227 258.27 236.685C257.959 237.329 254.343 245.126 256.562 246.978C258.348 248.454 263.65 245.925 269.563 240.457C272.303 239.525 276.418 238.349 281.532 237.85C290.917 236.929 295.698 239.026 298.56 235.876C300.657 233.569 300.745 229.509 299.303 226.792C297.761 223.863 294.655 222.865 292.537 222.211Z" fill="url(#paint11_linear)"/>
<defs>
<linearGradient id="paint0_linear" x1="72.531" y1="590.658" x2="100.613" y2="585.256" gradientUnits="userSpaceOnUse">
<stop stop-color="#311944"/>
<stop offset="1" stop-color="#6B3976"/>
</linearGradient>
<linearGradient id="paint1_linear" x1="73.7411" y1="671.98" x2="93.9169" y2="519.662" gradientUnits="userSpaceOnUse">
<stop stop-color="#FFC444"/>
<stop offset="0.9964" stop-color="#F36F56"/>
</linearGradient>
<linearGradient id="paint2_linear" x1="177.219" y1="5.05527" x2="686.331" y2="190.931" gradientUnits="userSpaceOnUse">
<stop stop-color="#311944"/>
<stop offset="1" stop-color="#6B3976"/>
</linearGradient>
<linearGradient id="paint3_linear" x1="178.721" y1="77.8713" x2="178.721" y2="275.617" gradientUnits="userSpaceOnUse">
<stop stop-color="#9174ED"/>
<stop offset="1" stop-color="#5E21F4"/>
</linearGradient>
<linearGradient id="paint4_linear" x1="283.424" y1="67.1243" x2="283.424" y2="286.446" gradientUnits="userSpaceOnUse">
<stop stop-color="#9174ED"/>
<stop offset="1" stop-color="#5E21F4"/>
</linearGradient>
<linearGradient id="paint5_linear" x1="275.569" y1="117.723" x2="236.623" y2="27.3275" gradientUnits="userSpaceOnUse">
<stop stop-color="#FFC444"/>
<stop offset="0.9964" stop-color="#F36F56"/>
</linearGradient>
<linearGradient id="paint6_linear" x1="245.294" y1="36.333" x2="292.734" y2="154.526" gradientUnits="userSpaceOnUse">
<stop stop-color="#FFC444"/>
<stop offset="0.9964" stop-color="#F36F56"/>
</linearGradient>
<linearGradient id="paint7_linear" x1="183.514" y1="271.655" x2="321.374" y2="245.132" gradientUnits="userSpaceOnUse">
<stop stop-color="#40447E"/>
<stop offset="0.9964" stop-color="#3C3B6B"/>
</linearGradient>
<linearGradient id="paint8_linear" x1="78.6218" y1="201.655" x2="186.249" y2="273.936" gradientUnits="userSpaceOnUse">
<stop stop-color="#40447E"/>
<stop offset="0.9964" stop-color="#3C3B6B"/>
</linearGradient>
<linearGradient id="paint9_linear" x1="78.6199" y1="201.654" x2="186.248" y2="273.936" gradientUnits="userSpaceOnUse">
<stop stop-color="#40447E"/>
<stop offset="0.9964" stop-color="#3C3B6B"/>
</linearGradient>
<linearGradient id="paint10_linear" x1="360.256" y1="70.4717" x2="360.256" y2="237.234" gradientUnits="userSpaceOnUse">
<stop stop-color="#9174ED"/>
<stop offset="1" stop-color="#5E21F4"/>
</linearGradient>
<linearGradient id="paint11_linear" x1="264.621" y1="227.869" x2="318.754" y2="262.243" gradientUnits="userSpaceOnUse">
<stop stop-color="#FFC444"/>
<stop offset="0.9964" stop-color="#F36F56"/>
</linearGradient>
</defs>
</svg>
