<svg width="44" height="44" viewBox="0 0 44 44" fill="none" xmlns="http://www.w3.org/2000/svg">
<path fill-rule="evenodd" clip-rule="evenodd" d="M9.04851 2.1059C8.83084 2.97656 9.3602 3.85883 10.2309 4.0765L13.5779 4.91326C14.4104 5.12139 15.0598 5.72739 15.3438 6.49786C13.4448 8.20034 12.25 10.6725 12.25 13.4236C12.25 14.5704 13.1796 15.5 14.3264 15.5H29.6736C30.8204 15.5 31.75 14.5704 31.75 13.4236C31.75 10.6725 30.5552 8.20034 28.6562 6.49786C28.9402 5.72739 29.5896 5.12139 30.4221 4.91326L33.7691 4.0765C34.6398 3.85883 35.1691 2.97656 34.9515 2.1059C34.7338 1.23523 33.8515 0.70587 32.9809 0.923537L29.6338 1.7603C27.9577 2.17933 26.607 3.30554 25.8677 4.77268C24.8102 4.35469 23.6576 4.12502 22.4514 4.12502H21.5486C20.3424 4.12502 19.1898 4.35469 18.1322 4.77268C17.393 3.30554 16.0423 2.17933 14.3661 1.7603L11.0191 0.923537C10.1484 0.70587 9.26618 1.23523 9.04851 2.1059ZM28.3862 12.25H15.6138C16.1602 9.47117 18.6096 7.37502 21.5486 7.37502H22.4514C25.3904 7.37502 27.8398 9.47117 28.3862 12.25Z" fill="#F2F2F2"/>
<path fill-rule="evenodd" clip-rule="evenodd" d="M8.2579 33.5162C7.68667 31.9517 7.37499 30.2622 7.37499 28.5H2.49999C1.60253 28.5 0.87499 27.7725 0.87499 26.875C0.87499 25.9776 1.60253 25.25 2.49999 25.25H7.37499V22C7.37499 21.3761 7.49221 20.7795 7.70582 20.2312C5.58541 19.8266 3.68893 18.5879 2.46828 16.757L1.14791 14.7764C0.650085 14.0297 0.851868 13.0208 1.5986 12.5229C2.34534 12.0251 3.35425 12.2269 3.85207 12.9736L5.17244 14.9542C6.07658 16.3104 7.59871 17.125 9.22868 17.125H34.7713C36.4013 17.125 37.9234 16.3104 38.8275 14.9542L40.1479 12.9736C40.6457 12.2269 41.6546 12.0251 42.4014 12.5229C43.1481 13.0208 43.3499 14.0297 42.8521 14.7764L41.5317 16.757C40.3111 18.5879 38.4146 19.8266 36.2942 20.2312C36.5078 20.7795 36.625 21.3761 36.625 22V25.25H41.5C42.3975 25.25 43.125 25.9776 43.125 26.875C43.125 27.7725 42.3975 28.5 41.5 28.5H36.625C36.625 30.2622 36.3133 31.9517 35.7421 33.5162C38.207 33.9819 40.3528 35.5719 41.5 37.8664L42.9534 40.7733C43.3548 41.576 43.0294 42.5521 42.2267 42.9535C41.424 43.3548 40.4479 43.0295 40.0466 42.2267L38.5931 39.3199C37.7673 37.6683 36.0793 36.625 34.2328 36.625H34.1622C31.5386 40.5445 27.0707 43.125 22 43.125C16.9293 43.125 12.4614 40.5445 9.83776 36.625H9.76721C7.9207 36.625 6.23266 37.6683 5.40688 39.3199L3.95343 42.2267C3.55208 43.0295 2.57598 43.3548 1.77327 42.9535C0.970553 42.5521 0.645188 41.576 1.04655 40.7733L2.49999 37.8664C3.64723 35.5719 5.79297 33.9819 8.2579 33.5162ZM20.375 20.375H12.25C11.3525 20.375 10.625 21.1026 10.625 22V28.5C10.625 34.2305 14.8625 38.9713 20.375 39.7598V20.375ZM23.625 39.7598V20.375H31.75C32.6475 20.375 33.375 21.1026 33.375 22V28.5C33.375 34.2305 29.1375 38.9713 23.625 39.7598Z" fill="#F2F2F2"/>
</svg>
