<svg width="137" height="137" viewBox="0 0 137 137" fill="none" xmlns="http://www.w3.org/2000/svg">
<path d="M73.6154 27.5769C73.6154 24.7518 71.3251 22.4615 68.5 22.4615C65.6748 22.4615 63.3846 24.7518 63.3846 27.5769V70.6189L90.4598 97.694C92.4575 99.6917 95.6964 99.6917 97.694 97.694C99.6917 95.6964 99.6917 92.4575 97.694 90.4598L73.6154 66.3811V27.5769Z" fill="#F2F2F2"/>
<path fill-rule="evenodd" clip-rule="evenodd" d="M68.5 2C31.7731 2 2 31.7731 2 68.5C2 105.227 31.7731 135 68.5 135C105.227 135 135 105.227 135 68.5C135 31.7731 105.227 2 68.5 2ZM12.2308 68.5C12.2308 37.4234 37.4234 12.2308 68.5 12.2308C99.5766 12.2308 124.769 37.4234 124.769 68.5C124.769 99.5766 99.5766 124.769 68.5 124.769C37.4234 124.769 12.2308 99.5766 12.2308 68.5Z" fill="#F2F2F2"/>
<path d="M73.6154 27.5769C73.6154 24.7518 71.3251 22.4615 68.5 22.4615C65.6748 22.4615 63.3846 24.7518 63.3846 27.5769V70.6189L90.4598 97.694C92.4575 99.6917 95.6964 99.6917 97.694 97.694C99.6917 95.6964 99.6917 92.4575 97.694 90.4598L73.6154 66.3811V27.5769Z" stroke="#7A62E6" stroke-width="3" stroke-linecap="round"/>
<path fill-rule="evenodd" clip-rule="evenodd" d="M68.5 2C31.7731 2 2 31.7731 2 68.5C2 105.227 31.7731 135 68.5 135C105.227 135 135 105.227 135 68.5C135 31.7731 105.227 2 68.5 2ZM12.2308 68.5C12.2308 37.4234 37.4234 12.2308 68.5 12.2308C99.5766 12.2308 124.769 37.4234 124.769 68.5C124.769 99.5766 99.5766 124.769 68.5 124.769C37.4234 124.769 12.2308 99.5766 12.2308 68.5Z" stroke="#7A62E6" stroke-width="3" stroke-linecap="round"/>
</svg>
