<svg width="137" height="125" viewBox="0 0 137 125" fill="none" xmlns="http://www.w3.org/2000/svg">
<path d="M53.1539 97.7917C50.3287 97.7917 48.0385 100.049 48.0385 102.833C48.0385 105.618 50.3287 107.875 53.1539 107.875H83.8462C86.6713 107.875 88.9615 105.618 88.9615 102.833C88.9615 100.049 86.6713 97.7917 83.8462 97.7917H53.1539Z" fill="#F2F2F2"/>
<path fill-rule="evenodd" clip-rule="evenodd" d="M32.6923 22.1667C32.6923 19.3822 34.9825 17.125 37.8077 17.125H99.1923C102.017 17.125 104.308 19.3822 104.308 22.1667V67.5417C104.308 70.3261 102.017 72.5833 99.1923 72.5833H37.8077C34.9825 72.5833 32.6923 70.3261 32.6923 67.5417V22.1667ZM42.9231 27.2083V62.5H94.0769V27.2083H42.9231Z" fill="#F2F2F2"/>
<path fill-rule="evenodd" clip-rule="evenodd" d="M22.4615 2C19.6364 2 17.3462 4.25723 17.3462 7.04167V81.2702L2.72899 105.281C1.86897 106.694 1.76353 108.432 2.44658 109.935L2.45121 109.945L2.45757 109.959L2.47548 109.998L2.53177 110.118C2.57829 110.217 2.64283 110.351 2.72454 110.516C2.88765 110.846 3.12099 111.303 3.41788 111.845C4.00526 112.918 4.872 114.38 5.9682 115.873C7.04396 117.338 8.46725 119.006 10.2087 120.351C11.9272 121.678 14.3632 123 17.3462 123H119.654C122.637 123 125.073 121.678 126.791 120.351C128.533 119.006 129.956 117.338 131.032 115.873C132.128 114.38 132.995 112.918 133.582 111.845C133.879 111.303 134.112 110.846 134.275 110.516C134.357 110.351 134.422 110.217 134.468 110.118L134.525 109.998L134.542 109.959L134.551 109.94L134.275 110.516L134.553 109.935C135.236 108.432 135.131 106.694 134.271 105.281L119.654 81.2702V7.04167C119.654 4.25723 117.364 2 114.538 2H22.4615ZM111.642 87.7083H25.3578L12.9829 108.036C13.3471 108.644 13.7765 109.308 14.2556 109.96C15.0313 111.017 15.8125 111.869 16.519 112.414C17.0534 112.827 17.3334 112.905 17.3829 112.917H119.617C119.667 112.905 119.947 112.827 120.481 112.414C121.187 111.869 121.969 111.017 122.744 109.96C123.224 109.308 123.653 108.644 124.017 108.036L111.642 87.7083ZM27.5769 77.625H109.423V12.0833H27.5769V77.625Z" fill="#F2F2F2"/>
<path d="M2.44658 109.935C1.76353 108.432 1.86897 106.694 2.72899 105.281L17.3462 81.2702V7.04167C17.3462 4.25723 19.6364 2 22.4615 2H114.538C117.364 2 119.654 4.25723 119.654 7.04167V81.2702L134.271 105.281C135.131 106.694 135.236 108.432 134.553 109.935L134.275 110.516M2.44658 109.935L3.41788 111.845M2.44658 109.935L2.45121 109.945L2.45757 109.959L2.47548 109.998L2.53177 110.118C2.57829 110.217 2.64283 110.351 2.72454 110.516C2.88765 110.846 3.12099 111.303 3.41788 111.845M3.41788 111.845C4.00526 112.918 4.872 114.38 5.9682 115.873C7.04396 117.338 8.46725 119.006 10.2087 120.351C11.9272 121.678 14.3632 123 17.3462 123H119.654C122.637 123 125.073 121.678 126.791 120.351C128.533 119.006 129.956 117.338 131.032 115.873C132.128 114.38 132.995 112.918 133.582 111.845C133.879 111.303 134.112 110.846 134.275 110.516M134.275 110.516C134.357 110.351 134.422 110.217 134.468 110.118L134.525 109.998L134.542 109.959L134.551 109.94L134.275 110.516ZM111.642 87.7083L124.017 108.036C123.653 108.644 123.224 109.308 122.744 109.96C121.969 111.017 121.187 111.869 120.481 112.414C119.947 112.827 119.667 112.905 119.617 112.917H17.3829C17.3334 112.905 17.0534 112.827 16.519 112.414C15.8125 111.869 15.0313 111.017 14.2556 109.96C13.7765 109.308 13.3471 108.644 12.9829 108.036L25.3578 87.7083H111.642ZM109.423 77.625H27.5769V12.0833H109.423V77.625ZM37.8077 17.125C34.9825 17.125 32.6923 19.3822 32.6923 22.1667V67.5417C32.6923 70.3261 34.9825 72.5833 37.8077 72.5833H99.1923C102.017 72.5833 104.308 70.3261 104.308 67.5417V22.1667C104.308 19.3822 102.017 17.125 99.1923 17.125H37.8077ZM42.9231 62.5V27.2083H94.0769V62.5H42.9231ZM48.0385 102.833C48.0385 100.049 50.3287 97.7917 53.1539 97.7917H83.8462C86.6713 97.7917 88.9615 100.049 88.9615 102.833C88.9615 105.618 86.6713 107.875 83.8462 107.875H53.1539C50.3287 107.875 48.0385 105.618 48.0385 102.833Z" stroke="#7A62E6" stroke-width="3" stroke-linecap="round"/>
</svg>
