<svg width="125" height="136" viewBox="0 0 125 136" fill="none" xmlns="http://www.w3.org/2000/svg">
<path fill-rule="evenodd" clip-rule="evenodd" d="M32.25 2C26.6811 2 22.1666 6.54603 22.1666 12.1538L12.0833 12.1538C6.51445 12.1538 2 16.6999 2 22.3077V35C2 48.7747 11.9049 60.2198 24.9339 62.5071C30.2252 76.1021 42.5841 86.1257 57.4583 87.9935V123.846H37.2917C34.5072 123.846 32.25 126.119 32.25 128.923C32.25 131.727 34.5072 134 37.2917 134H87.7084C90.4928 134 92.75 131.727 92.75 128.923C92.75 126.119 90.4928 123.846 87.7084 123.846H67.5417V87.9935C82.4159 86.1257 94.7748 76.1021 100.066 62.5071C113.095 60.2198 123 48.7747 123 35V22.3077C123 16.6999 118.486 12.1538 112.917 12.1538H102.833C102.833 6.54603 98.3189 2 92.75 2H32.25ZM62.5 78.1538C79.2066 78.1538 92.75 64.5157 92.75 47.6923V12.1538L32.25 12.1538V47.6923C32.25 64.5157 45.7934 78.1538 62.5 78.1538ZM12.0833 22.3077H22.1666V47.6923C22.1666 48.8489 22.2147 49.9943 22.3088 51.1264C16.2706 48.3043 12.0833 42.1446 12.0833 35L12.0833 22.3077ZM102.833 22.3077H112.917L112.917 35C112.917 42.1446 108.729 48.3043 102.691 51.1264C102.785 49.9943 102.833 48.8489 102.833 47.6923V22.3077Z" fill="#F2F2F2" stroke="#7A62E6" stroke-width="3" stroke-linecap="round"/>
</svg>
