<svg width="78" height="74" viewBox="0 0 78 74" fill="none" xmlns="http://www.w3.org/2000/svg">
<g clip-path="url(#clip0)">
<path d="M75.9179 31.2261L71.7159 31.2582C71.3752 29.4479 70.883 27.6911 70.2341 26.0039L73.8791 23.9739C74.8742 23.4169 75.2149 22.2011 74.6416 21.2584L71.0507 15.3399C70.4774 14.3919 69.2011 14.0759 68.2061 14.6275L64.5178 16.6736C63.2902 15.2917 61.9382 14.0116 60.4726 12.8547L62.6087 9.31963C63.1874 8.36624 62.8413 7.1504 61.8462 6.60408L55.5891 3.18688C54.5886 2.64056 53.3069 2.96728 52.7283 3.92603L50.5813 7.47177C48.8021 6.86653 46.9471 6.40591 45.0381 6.09525V1.99247C45.0381 0.889114 44.0971 0 42.9343 0L35.6443 0.0160683C34.4762 0.0160683 33.5352 0.915895 33.5352 2.01925V6.13274C31.6153 6.45947 29.7496 6.9308 27.9541 7.55211L25.7855 4.00637C25.2014 3.04763 23.9035 2.72626 22.8922 3.28329L16.5432 6.76477C15.5265 7.3218 15.1803 8.54835 15.7644 9.50709L17.9384 13.0528C16.4512 14.2365 15.0722 15.5381 13.8229 16.9467L10.0589 14.9168C9.03682 14.3651 7.73348 14.7025 7.14401 15.6666L3.45573 21.703C2.86626 22.6671 3.21778 23.899 4.23989 24.4453L7.97684 26.4538C7.31166 28.1678 6.8033 29.9567 6.45719 31.7992L2.14158 31.8367C0.957221 31.8367 0 32.7472 0 33.8613V40.8135C0 41.9276 0.957221 42.8167 2.13617 42.806L6.41392 42.7632C6.74922 44.6057 7.25217 46.3946 7.91195 48.1086L4.22908 50.1546C3.20696 50.7223 2.85544 51.9543 3.44491 52.913L7.13319 58.8797C7.72267 59.8331 9.026 60.1437 10.0481 59.576L13.7039 57.5353C14.964 58.944 16.3539 60.2402 17.8573 61.4131L15.7536 64.8785C15.1641 65.848 15.5156 67.0692 16.5323 67.6102L22.8814 70.9738C23.8981 71.5094 25.1906 71.1613 25.7747 70.1972L27.8513 66.7639C29.6739 67.3691 31.5721 67.8137 33.5244 68.1083V72.045C33.5244 73.1484 34.4708 74.0321 35.6335 74.0107L42.9127 73.8929C44.0754 73.8715 45.0164 72.9663 45.0164 71.8629V67.9369C46.9579 67.5834 48.8453 67.0853 50.6516 66.4265L52.7121 69.7847C53.2907 70.7274 54.5724 71.0327 55.5729 70.4703L61.83 66.9353C62.8305 66.3729 63.1712 65.1517 62.5925 64.209L60.5267 60.8293C62.0031 59.6242 63.3713 58.3012 64.6097 56.8765L68.1898 58.7994C69.1849 59.335 70.4612 58.9922 71.0345 58.0334L74.6254 52.0507C75.1986 51.0973 74.8579 49.8868 73.8629 49.3512L70.2719 47.4176C70.9155 45.709 71.4076 43.9308 71.7321 42.1044L75.9017 42.0615C77.0482 42.0508 77.9784 41.151 77.9784 40.0583V33.1918C78 32.0992 77.0698 31.2208 75.9179 31.2261ZM39.2893 16.8878C51.0193 16.8235 60.4834 25.7682 60.4834 36.8661C60.4834 47.964 51.0139 57.08 39.2893 57.2354C27.5106 57.3907 17.9222 48.446 17.9222 37.2571C17.9168 26.0735 27.5052 16.9521 39.2893 16.8878Z" fill="url(#paint0_linear)"/>
</g>
<defs>
<linearGradient id="paint0_linear" x1="45.6725" y1="-1.46795" x2="23.5864" y2="128.152" gradientUnits="userSpaceOnUse">
<stop stop-color="#FFC444"/>
<stop offset="0.9964" stop-color="#F36F56"/>
</linearGradient>
<clipPath id="clip0">
<rect width="78" height="74" fill="white"/>
</clipPath>
</defs>
</svg>
