<svg width="502" height="500" viewBox="0 0 658 656" fill="none" xmlns="http://www.w3.org/2000/svg">
<g clip-path="url(#clip0)">
<path d="M258.548 446.622L267.994 435.078C274.255 438.391 280.718 441.15 287.313 443.314L285.182 458.002C284.597 462.006 287.507 465.773 291.681 466.425L317.821 470.465C322.008 471.116 325.887 468.386 326.491 464.374L328.719 449.512C335.73 449.385 342.719 448.686 349.601 447.396L355.432 461.52C356.999 465.327 361.48 467.233 365.432 465.788L390.23 456.694C394.207 455.233 396.167 450.954 394.59 447.127L388.753 432.915C394.707 429.457 400.4 425.443 405.759 420.923L418.277 430.57C421.641 433.163 426.535 432.669 429.225 429.472L446.094 409.399C448.801 406.179 448.261 401.462 444.88 398.857L432.307 389.167C435.782 383.101 438.68 376.826 440.953 370.389L456.876 372.747C461.171 373.386 465.192 370.554 465.863 366.439L470.046 340.571C470.719 336.421 467.764 332.549 463.45 331.919L447.482 329.586C447.328 322.649 446.549 315.727 445.159 308.901L460.211 303.19C464.291 301.644 466.315 297.201 464.729 293.272L454.818 268.643C453.23 264.701 448.634 262.766 444.55 264.333L429.637 270.057C425.923 264.122 421.605 258.467 416.768 253.144L426.744 240.945C429.48 237.606 428.919 232.755 425.499 230.119L404.102 213.629C400.682 210.994 395.706 211.578 392.986 214.929L383.147 227.08C376.697 223.657 370.037 220.829 363.23 218.631L365.506 203.429C366.139 199.202 363.151 195.292 358.849 194.694L331.942 190.95C327.654 190.351 323.669 193.283 323.056 197.501L320.853 212.607C313.622 212.824 306.427 213.66 299.363 215.105L293.578 201.004C291.962 197.065 287.411 195.152 283.413 196.739L258.491 206.625C254.519 208.195 252.615 212.66 254.234 216.578L259.984 230.498C253.967 234.168 248.25 238.423 242.887 243.176L230.863 233.909C227.491 231.31 222.642 231.875 220.038 235.173L203.819 255.748C201.232 259.024 201.867 263.78 205.232 266.373L217.201 275.597C213.855 281.821 211.095 288.225 208.984 294.776L194.095 292.601C189.907 291.985 186.072 294.819 185.524 298.922L182.106 324.494C181.561 328.575 184.497 332.374 188.671 332.992L203.615 335.209C203.928 342.103 204.85 348.969 206.384 355.706L192.446 361.057C188.571 362.549 186.737 366.843 188.333 370.661L198.358 394.493C199.959 398.303 204.396 400.186 208.268 398.715L222.261 393.406C225.983 399.169 230.268 404.657 235.06 409.827L225.75 421.322C223.187 424.487 223.803 429.121 227.121 431.678L247.867 447.666C251.197 450.256 255.969 449.774 258.548 446.622ZM386.106 379.735C359.226 412.181 310.284 417.19 276.549 391.192C242.815 365.194 236.61 317.685 262.918 284.798C289.473 251.605 338.988 245.902 373.295 272.341C407.596 298.788 413.229 346.991 386.106 379.735Z" fill="url(#paint0_linear)"/>
<path opacity="0.74" d="M511.428 476.316C596.204 377.521 580.976 229.236 475.2 147.718C369.424 66.2007 217.58 85.729 138.153 188.646C60.9314 288.701 81.3653 430.588 181.878 508.05C282.391 585.512 429.008 572.377 511.428 476.316ZM182.774 223.034C243.492 145.366 358.531 131.126 438.518 192.769C518.505 254.412 530.6 366.63 466.799 441.922C404.357 515.614 292.333 526.151 215.397 466.86C138.456 407.575 123.345 299.06 182.774 223.034Z" fill="white"/>
<path d="M355.626 156.845L364.013 100.15C324.141 94.0236 283.434 97.8532 245.873 111.066L267.52 163.73C295.68 154.461 325.993 152.015 355.626 156.845Z" fill="url(#paint1_linear)"/>
<path d="M314.858 504.694L307.009 557.348C342.655 560.75 378.804 556.314 412.491 544.251L391.813 494.012C367.252 502.959 340.947 506.579 314.858 504.694Z" fill="url(#paint2_linear)"/>
<path d="M500.308 282.064C507.821 307.209 509.513 333.694 505.189 359.501L562.708 367.955C568.841 332.387 566.274 295.763 555.264 261.188L500.308 282.064Z" fill="url(#paint3_linear)"/>
<path d="M438.513 192.777C440.222 194.094 441.86 195.474 443.514 196.832L480.273 151.746C478.605 150.39 476.918 149.042 475.2 147.719C444.783 124.278 410.372 109.184 374.869 102.076L366.389 158.971C391.908 164.694 416.583 175.876 438.513 192.777Z" fill="url(#paint4_linear)"/>
<path d="M304.301 503.647C278.117 500.248 252.389 491.244 229.096 476.436L195.357 517.716C226.502 538.493 261.184 551.207 296.532 556.116L304.301 503.647Z" fill="url(#paint5_linear)"/>
<path d="M503.554 369.312C497.959 393.443 486.98 416.661 470.523 437.3L515.231 471.755C538.426 443.441 553.648 411.263 561.066 377.808L503.554 369.312Z" fill="url(#paint6_linear)"/>
<path d="M451.709 204.01C472.566 223.487 487.733 246.827 496.952 271.916L551.771 251.04C539.051 216.754 517.872 184.976 488.608 158.855L451.709 204.01Z" fill="url(#paint7_linear)"/>
<path d="M463.29 445.858C445.728 465.386 424.606 480.173 401.654 490.099L422.352 540.459C454.264 527.406 483.689 507.296 507.951 480.276L463.29 445.858Z" fill="url(#paint8_linear)"/>
</g>
<defs>
<linearGradient id="paint0_linear" x1="428.483" y1="439.936" x2="90.8439" y2="65.785" gradientUnits="userSpaceOnUse">
<stop stop-color="#444B8C"/>
<stop offset="0.9964" stop-color="#26264F"/>
</linearGradient>
<linearGradient id="paint1_linear" x1="-62.2905" y1="208.325" x2="938.779" y2="-58.0773" gradientUnits="userSpaceOnUse">
<stop stop-color="#444B8C"/>
<stop offset="0.9964" stop-color="#DC76EA"/>
</linearGradient>
<linearGradient id="paint2_linear" x1="40.0566" y1="592.919" x2="1041.13" y2="326.516" gradientUnits="userSpaceOnUse">
<stop stop-color="#444B8C"/>
<stop offset="0.9964" stop-color="#DC76EA"/>
</linearGradient>
<linearGradient id="paint3_linear" x1="-2.93374" y1="431.372" x2="998.136" y2="164.97" gradientUnits="userSpaceOnUse">
<stop stop-color="#444B8C"/>
<stop offset="0.9964" stop-color="#DC76EA"/>
</linearGradient>
<linearGradient id="paint4_linear" x1="-52.4234" y1="245.403" x2="948.647" y2="-20.9989" gradientUnits="userSpaceOnUse">
<stop stop-color="#444B8C"/>
<stop offset="0.9964" stop-color="#DC76EA"/>
</linearGradient>
<linearGradient id="paint5_linear" x1="32.406" y1="564.17" x2="1033.48" y2="297.768" gradientUnits="userSpaceOnUse">
<stop stop-color="#444B8C"/>
<stop offset="0.9964" stop-color="#DC76EA"/>
</linearGradient>
<linearGradient id="paint6_linear" x1="21.7126" y1="521.9" x2="1022.78" y2="255.498" gradientUnits="userSpaceOnUse">
<stop stop-color="#444B8C"/>
<stop offset="0.9964" stop-color="#DC76EA"/>
</linearGradient>
<linearGradient id="paint7_linear" x1="-31.4165" y1="324.342" x2="969.653" y2="57.9391" gradientUnits="userSpaceOnUse">
<stop stop-color="#444B8C"/>
<stop offset="0.9964" stop-color="#DC76EA"/>
</linearGradient>
<linearGradient id="paint8_linear" x1="36.0104" y1="577.714" x2="1037.08" y2="311.312" gradientUnits="userSpaceOnUse">
<stop stop-color="#444B8C"/>
<stop offset="0.9964" stop-color="#DC76EA"/>
</linearGradient>
<clipPath id="clip0">
<rect width="464.469" height="471.599" fill="white" transform="translate(657.065 287.875) rotate(127.62)"/>
</clipPath>
</defs>
</svg>
