<svg width="71" height="71" viewBox="0 0 71 71" fill="none" xmlns="http://www.w3.org/2000/svg">
<g clip-path="url(#clip0)">
<path d="M69.1201 30.5779L65.3113 30.5475C65.0061 28.8101 64.5578 27.1182 63.9663 25.491L67.2703 23.6053C68.1707 23.092 68.4796 21.9325 67.9597 21.0162L64.7047 15.2944C64.1848 14.3781 63.0282 14.0512 62.1241 14.5644L58.7786 16.4654C57.6635 15.1233 56.4353 13.8763 55.1092 12.7395L57.0494 9.39009C57.5731 8.48524 57.2604 7.31807 56.3562 6.7782L50.675 3.39453C49.7633 2.85087 48.5992 3.14741 48.0755 4.05226L46.1202 7.41311C44.504 6.80101 42.8162 6.32958 41.0795 5.99882L41.0795 2.06008C41.0795 1.00315 40.2243 0.132526 39.1657 0.113516L32.5388 -0.000539944C31.4764 -0.0195493 30.6175 0.824467 30.6175 1.88519L30.6175 5.83534C28.8694 6.11287 27.1666 6.53488 25.5353 7.10136L23.5574 3.65686C23.0224 2.72921 21.8433 2.39464 20.9165 2.9117L15.1223 6.14709C14.1955 6.66415 13.8753 7.83892 14.4102 8.77038L16.3956 12.2149C15.0356 13.325 13.7811 14.5568 12.6358 15.8875L9.19617 13.8725C8.26563 13.3288 7.07137 13.6292 6.53263 14.5454L3.16083 20.2863C2.6221 21.2063 2.94232 22.3925 3.87663 22.9362L7.29364 24.9245C6.68333 26.5632 6.21994 28.274 5.90348 30.0381L1.95527 30.0077C0.877799 30 3.3413e-07 30.8593 3.45697e-07 31.9276L4.18104e-07 38.6151C4.29671e-07 39.6834 0.877799 40.5541 1.95527 40.5617L5.86957 40.5845C6.1785 42.3599 6.63435 44.0898 7.23713 45.7474L3.87286 47.6598C2.93855 48.192 2.61833 49.3744 3.15706 50.2983L6.52887 56.0885C7.0676 57.0124 8.25809 57.3317 9.1924 56.7995L12.5341 54.8909C13.6869 56.2596 14.9565 57.5256 16.3278 58.6738L14.4102 61.9738C13.8753 62.8977 14.1917 64.0762 15.1223 64.6085L20.9165 67.9237C21.8433 68.4522 23.0224 68.1366 23.5574 67.2128L25.4524 63.9432C27.1138 64.5477 28.843 65.0001 30.6212 65.3081L30.6212 69.0833C30.6212 70.144 31.484 70.9995 32.5426 70.9957L39.1694 70.9766C40.2281 70.9728 41.0833 70.1136 41.0833 69.0567L41.0833 65.2928C42.8502 64.9811 44.5643 64.5249 46.2069 63.9204L48.0793 67.1634C48.6067 68.0758 49.7708 68.3876 50.6788 67.8553L56.36 64.5515C57.2679 64.023 57.5768 62.8596 57.0532 61.9472L55.177 58.6852C56.5182 57.5522 57.7577 56.3052 58.8803 54.9555L62.1278 56.8451C63.032 57.3697 64.1848 57.0618 64.7085 56.1531L67.9635 50.4769C68.4834 49.5683 68.1745 48.4087 67.2741 47.8803L64.0228 45.9755C64.6068 44.3483 65.0513 42.6565 65.3489 40.9114L69.1276 40.9304C70.1674 40.938 71.0075 40.0902 71.0075 39.0447L71.0075 32.4903C71 31.441 70.1561 30.5855 69.1201 30.5779ZM35.8541 16.2525C46.5196 16.3855 55.1205 25.1108 55.1205 35.7409C55.1205 46.3709 46.5196 54.9784 35.8541 54.9632C25.1246 54.9479 16.3768 46.2188 16.3768 35.4709C16.3768 24.723 25.1246 16.1194 35.8541 16.2525Z" fill="url(#paint0_linear)"/>
</g>
<defs>
<linearGradient id="paint0_linear" x1="74.6193" y1="59.4639" x2="-51.9823" y2="-16.5403" gradientUnits="userSpaceOnUse">
<stop stop-color="#444B8C"/>
<stop offset="0.9964" stop-color="#26264F"/>
</linearGradient>
<clipPath id="clip0">
<rect width="71" height="71" fill="white"/>
</clipPath>
</defs>
</svg>
