<svg width="30" height="30" viewBox="0 0 30 30" fill="none" xmlns="http://www.w3.org/2000/svg">
<path d="M25.7308 0H4.26923C1.84615 0 0 1.84615 0 4.26923V25.7308C0 28.1538 1.84615 30 4.26923 30H25.7308C28.1538 30 30 28.1538 30 25.7308V4.26923C30 1.84615 28.1538 0 25.7308 0ZM15 24C19.9615 24 24 20.0769 24 15.3462C24 14.5385 23.8846 13.6154 23.6538 12.9231H26.1923V25.1538C26.1923 25.7308 25.7308 26.3077 25.0385 26.3077H4.96154C4.38462 26.3077 3.8077 25.8462 3.8077 25.1538V12.8077H6.46155C6.23078 13.6154 6.11539 14.4231 6.11539 15.2308C6 20.0769 10.0385 24 15 24ZM15 20.5385C11.7692 20.5385 9.23077 18 9.23077 14.8846C9.23077 11.7692 11.7692 9.23077 15 9.23077C18.2308 9.23077 20.7692 11.7692 20.7692 14.8846C20.7692 18.1154 18.2308 20.5385 15 20.5385ZM26.0769 8.19231C26.0769 8.88461 25.5 9.46154 24.8077 9.46154H21.5769C20.8846 9.46154 20.3077 8.88461 20.3077 8.19231V5.07692C20.3077 4.38461 20.8846 3.80769 21.5769 3.80769H24.8077C25.5 3.80769 26.0769 4.38461 26.0769 5.07692V8.19231Z" fill="white"/>
</svg>
