<svg width="28" height="28" viewBox="0 0 28 28" fill="none" xmlns="http://www.w3.org/2000/svg">
<path d="M23.352 0.899414H4.05057C1.87137 0.899414 0.211037 2.55975 0.211037 4.73895V24.0404C0.211037 26.2196 1.87137 27.8799 4.05057 27.8799H23.352C25.5312 27.8799 27.1916 26.2196 27.1916 24.0404V4.73895C27.1916 2.55975 25.5312 0.899414 23.352 0.899414ZM13.7013 22.4838C18.1635 22.4838 21.7955 18.9556 21.7955 14.701C21.7955 13.9746 21.6917 13.1444 21.4841 12.5218H23.7671V23.5215C23.7671 24.0404 23.352 24.5593 22.7294 24.5593H4.6732C4.15435 24.5593 3.63549 24.1442 3.63549 23.5215V12.418H6.02223C5.81469 13.1444 5.71092 13.8708 5.71092 14.5972C5.60714 18.9556 9.23913 22.4838 13.7013 22.4838ZM13.7013 19.3707C10.7957 19.3707 8.51274 17.0877 8.51274 14.2859C8.51274 11.4841 10.7957 9.20111 13.7013 9.20111C16.6069 9.20111 18.8899 11.4841 18.8899 14.2859C18.8899 17.1915 16.6069 19.3707 13.7013 19.3707ZM23.6633 8.26717C23.6633 8.8898 23.1445 9.40866 22.5219 9.40866H19.6163C18.9936 9.40866 18.4748 8.8898 18.4748 8.26717V5.46535C18.4748 4.84272 18.9936 4.32386 19.6163 4.32386H22.5219C23.1445 4.32386 23.6633 4.84272 23.6633 5.46535V8.26717Z" fill="#7A62E6"/>
</svg>
