<svg width="44" height="40" viewBox="0 0 44 40" fill="none" xmlns="http://www.w3.org/2000/svg">
<path d="M17.125 31.375C16.2275 31.375 15.5 32.1025 15.5 33C15.5 33.8975 16.2275 34.625 17.125 34.625H26.875C27.7725 34.625 28.5 33.8975 28.5 33C28.5 32.1025 27.7725 31.375 26.875 31.375H17.125Z" fill="#F2F2F2"/>
<path fill-rule="evenodd" clip-rule="evenodd" d="M10.625 7C10.625 6.10254 11.3525 5.375 12.25 5.375H31.75C32.6475 5.375 33.375 6.10254 33.375 7V21.625C33.375 22.5225 32.6475 23.25 31.75 23.25H12.25C11.3525 23.25 10.625 22.5225 10.625 21.625V7ZM13.875 8.625V20H30.125V8.625H13.875Z" fill="#F2F2F2"/>
<path fill-rule="evenodd" clip-rule="evenodd" d="M7.375 0.5C6.47754 0.5 5.75 1.22754 5.75 2.125V26.0499L1.10658 33.7889C0.833375 34.2443 0.799879 34.8044 1.01686 35.289L1.01833 35.2923L1.02036 35.2968L1.02604 35.3093L1.04393 35.348C1.05871 35.3797 1.07921 35.423 1.10516 35.4763C1.15698 35.5827 1.2311 35.7299 1.32542 35.9047C1.51201 36.2504 1.78735 36.7218 2.13557 37.2028C2.47731 37.6749 2.92944 38.2128 3.48266 38.6463C4.02857 39.074 4.80242 39.5 5.75 39.5H38.25C39.1976 39.5 39.9714 39.074 40.5173 38.6463C41.0706 38.2128 41.5227 37.6749 41.8644 37.2028C42.2127 36.7218 42.488 36.2504 42.6746 35.9047C42.7689 35.7299 42.843 35.5827 42.8948 35.4763C42.9208 35.423 42.9413 35.3797 42.9561 35.348L42.974 35.3093L42.9796 35.2968L42.9825 35.2905L42.8948 35.4763L42.9831 35.289C43.2001 34.8044 43.1666 34.2443 42.8934 33.7889L38.25 26.0499V2.125C38.25 1.22754 37.5225 0.5 36.625 0.5H7.375ZM35.7049 28.125H8.29506L4.36391 34.6769C4.47964 34.8727 4.61603 35.0869 4.76824 35.2972C5.01463 35.6376 5.26282 35.9122 5.48725 36.0881C5.657 36.2211 5.74594 36.2461 5.76168 36.25H38.2383C38.2541 36.2461 38.343 36.2211 38.5128 36.0881C38.7372 35.9122 38.9854 35.6376 39.2318 35.2972C39.384 35.0869 39.5204 34.8727 39.6361 34.6769L35.7049 28.125ZM9 24.875H35V3.75H9V24.875Z" fill="#F2F2F2"/>
</svg>
