<svg width="375" height="369" viewBox="0 0 375 369" fill="none" xmlns="http://www.w3.org/2000/svg">
<path d="M222.388 18.4235L8.59811 200.078C4.08364 203.914 3.94199 211.028 8.28573 215.768L140.784 360.372C145.25 365.246 152.591 365.594 156.736 361.126L348.01 154.898C351.737 150.88 351.514 144.385 347.496 140L237.513 19.9686C233.377 15.4542 226.688 14.7705 222.388 18.4235Z" fill="url(#paint0_linear)"/>
<path d="M225.94 15.1683L12.1513 196.822C7.63686 200.658 7.49521 207.771 11.839 212.512L144.337 357.116C148.803 361.99 156.145 362.338 160.289 357.87L351.564 151.642C355.29 147.624 355.067 141.128 351.049 136.744L241.067 16.7122C236.929 12.199 230.24 11.5153 225.94 15.1683Z" fill="url(#paint1_linear)"/>
<path d="M218.47 169.938L233.936 12.9328C231.089 12.5441 228.188 13.2581 225.94 15.1683L12.1514 196.822C10.1165 198.552 8.97292 200.944 8.7256 203.488L204.16 184.323C211.861 183.567 217.706 177.692 218.47 169.938Z" fill="url(#paint2_linear)"/>
<path d="M218.47 169.938C217.706 177.692 211.86 183.568 204.16 184.323L8.72559 203.488C8.42245 206.587 9.452 209.907 11.839 212.512L144.337 357.116C148.803 361.99 156.145 362.338 160.289 357.87L351.564 151.642C355.29 147.624 355.067 141.128 351.049 136.744L241.067 16.7122C239.092 14.557 236.536 13.2857 233.936 12.9329L218.47 169.938Z" fill="url(#paint3_linear)"/>
<path d="M218.47 169.938L233.936 12.9328C231.089 12.5441 228.188 13.2581 225.94 15.1683L12.1513 196.822C10.1164 198.552 8.97289 200.944 8.72557 203.488L204.16 184.323C211.861 183.567 217.706 177.692 218.47 169.938Z" fill="url(#paint4_linear)"/>
<path opacity="0.37" d="M233.936 12.9328L218.47 169.938C217.706 177.692 211.86 183.568 204.16 184.323L8.72558 203.488C8.42243 206.587 9.45198 209.907 11.8389 212.512L31.3792 233.838C33.8137 228.097 37.0187 224.487 40.1342 222.111C48.7505 215.544 55.5883 219.192 77.9487 213.018C98.8562 207.244 97.5092 202.774 108.619 202.294C130.021 201.369 135.475 217.939 156.068 219.131C177.512 220.373 178.96 202.83 204.637 199.162C231.77 195.286 238.768 213.643 259.764 208.964C289.179 202.407 289.473 163.247 316.072 159.414C324.115 158.254 332.154 160.677 339.523 164.621L351.562 151.641C355.289 147.622 355.066 141.127 351.048 136.742L241.067 16.7122C239.092 14.5595 236.536 13.2882 233.936 12.9328Z" fill="url(#paint5_linear)"/>
<defs>
<linearGradient id="paint0_linear" x1="118.45" y1="245.198" x2="35.319" y2="339.359" gradientUnits="userSpaceOnUse">
<stop stop-color="#FFC444"/>
<stop offset="0.9964" stop-color="#F36F56"/>
</linearGradient>
<linearGradient id="paint1_linear" x1="128.537" y1="159.426" x2="370.999" y2="263.403" gradientUnits="userSpaceOnUse">
<stop stop-color="#FFC444"/>
<stop offset="0.9964" stop-color="#F36F56"/>
</linearGradient>
<linearGradient id="paint2_linear" x1="168.888" y1="165.136" x2="14.4832" y2="-19.668" gradientUnits="userSpaceOnUse">
<stop stop-color="#FFC444"/>
<stop offset="0.9964" stop-color="#F36F56"/>
</linearGradient>
<linearGradient id="paint3_linear" x1="128.601" y1="159.456" x2="370.978" y2="263.398" gradientUnits="userSpaceOnUse">
<stop stop-color="#FFC444"/>
<stop offset="0.9964" stop-color="#F36F56"/>
</linearGradient>
<linearGradient id="paint4_linear" x1="131.638" y1="168.54" x2="79.5381" y2="-135.632" gradientUnits="userSpaceOnUse">
<stop stop-color="#FFC444"/>
<stop offset="0.9964" stop-color="#F36F56"/>
</linearGradient>
<linearGradient id="paint5_linear" x1="142.379" y1="127.326" x2="-165.784" y2="166.521" gradientUnits="userSpaceOnUse">
<stop stop-color="#F36F56"/>
<stop offset="1" stop-color="#FFC444"/>
</linearGradient>
</defs>
</svg>
