<svg width="397" height="824" viewBox="0 0 397 824" fill="none" xmlns="http://www.w3.org/2000/svg">
<g clip-path="url(#clip0)">
<path d="M338.187 46.1748C336.672 45.0611 335.157 43.9523 333.637 42.8386C329.609 24.3208 333.935 12.8467 336.648 7.51751C337.549 5.74926 340.73 -0.493351 342.883 0.0244238C345.537 0.664316 345.318 11.2201 344.622 20.7745C346 20.5693 349.683 20.2274 352.854 22.489C357.51 25.8008 357.277 32.0044 357.165 34.857C357.082 36.9818 356.96 40.2692 355.051 41.2364C352.81 42.3696 349.897 39.3069 348.343 40.5281C347.135 41.4709 347.447 43.9083 347.895 45.8182L338.187 46.1748Z" fill="#FF946E"/>
<path d="M100.309 756.504C100.309 756.504 92.7642 775.534 94.7467 783.975C86.6413 783.814 81.4 782.783 81.4 782.783C81.4 782.783 84.6588 774.103 85.292 769.805C86.1493 763.997 86.086 754.594 86.086 754.594L100.309 756.504Z" fill="url(#paint0_linear)"/>
<path d="M239.816 806.322C239.353 806.884 238.525 808.061 238.457 809.654C238.418 810.518 238.618 811.231 238.866 811.886C240.094 815.12 242.018 815.549 244.098 818.978C245.369 821.074 245.126 821.709 246.29 822.657C247.824 823.902 249.68 823.975 251.287 823.995C254.006 824.024 257.917 823.927 262.842 823.34C260.26 820.004 257.518 816.619 254.595 813.2C253.314 811.7 252.038 810.235 250.761 808.804L243.172 806.234C242.057 806.264 240.937 806.293 239.816 806.322Z" fill="#26264F"/>
<path d="M246.129 769.389C246.129 769.389 250.469 792.079 244.945 798.429C240.245 804.784 247.215 800.251 247.215 800.251L255.545 807.534L260.543 816.185C260.543 816.185 255.944 793.979 257.172 785.167C258.399 776.355 259.013 770.41 259.013 770.41L246.129 769.389Z" fill="url(#paint1_linear)"/>
<path d="M288.585 343.319C294.133 361.69 302.058 391.345 307.158 428.547C321.708 534.666 290.787 538.051 296.559 655.645C298.4 693.179 264.132 779.735 261.112 781.645C259.651 781.787 258.063 781.884 256.373 781.831C253.392 781.738 249.188 781.284 244.302 779.813C238.876 778.875 219.299 725.711 223.839 694.102C227.049 671.73 226.119 647.722 224.258 599.701C223.956 591.919 204.107 448.325 204.107 448.325C198.066 501.475 191.125 546.639 185.105 581.652C165.762 694.146 102.867 762.238 99.5885 763.327C98.9406 763.586 93.0369 765.741 88.2146 762.551C86.0665 761.129 85.3358 759.303 85.3358 759.303C83.6553 757.984 85.8327 646.989 105.015 563.457C132.858 442.209 120.734 413.839 129.555 359.688C137.183 312.829 288.585 343.319 288.585 343.319Z" fill="url(#paint2_linear)"/>
<path d="M96.734 791.195C96.734 791.195 98.6143 791.195 98.4584 793.632C98.3025 796.069 99.3059 804.447 89.7441 804.837C80.1822 805.228 78.7063 804.158 78.3945 804.158C78.0828 804.158 80.9031 796.143 80.9031 796.143L83.9621 792.215L92.1942 791.351L96.734 791.195Z" fill="#26264F"/>
<path d="M75.5304 799.606C75.735 797.584 76.8651 794.399 78.0001 791.834C79.6903 788.029 78.3021 786.603 79.9144 783.135C80.4746 781.938 81.0152 780.8 82.194 779.672C82.4668 779.413 85.1021 776.97 88.9453 777.093C89.7003 777.117 90.8645 777.166 92.1261 777.84C93.6069 778.631 94.3522 779.823 94.9854 780.863C95.984 782.505 95.755 783.008 97.2894 787.712C97.4112 788.088 97.684 788.908 97.8934 790.042C98.0542 790.906 98.1175 791.634 98.1467 792.132C95.6381 792.132 85.9983 792.523 83.9574 794.018C81.9213 795.513 80.8983 798.023 80.8983 800.539C80.8983 803.054 79.6465 804.232 78.3897 804.154C77.2694 804.09 75.0433 802.009 75.5304 799.606Z" fill="#444B8C"/>
<path d="M247.293 795.244C245.242 795.278 243.732 796.915 242.598 800.861C241.463 804.808 236.012 808.296 242.369 807.465C248.73 806.63 253.348 815.662 255.618 818.998C257.888 822.339 263.986 825.304 263.835 822.041C263.684 818.778 260.995 817.254 260.236 813.913C259.485 810.572 251.974 795.171 247.293 795.244Z" fill="#444B8C"/>
<path d="M202.582 99.4715C204.36 88.3344 197.93 78.951 196.517 76.9336C190.609 68.4831 189.221 67.3987 186.712 66.1043L183.254 64.4777C183.254 64.4777 183.059 64.424 182.854 64.3751C180.696 63.8769 173.604 64.4777 172.206 64.9515C167.744 66.4609 159.683 87.2061 169.454 111.966C170.569 114.79 168.782 118.683 169.055 118.185C163.341 128.555 155.25 124.344 154.758 125.731C153.691 128.736 163.828 129.512 173.653 132.702C185.977 136.702 200.736 135.257 201.666 131.183C202.041 129.532 200.288 126.845 191.851 122.21C191.028 119.806 190.205 117.403 189.381 114.995C191.12 113.828 201.272 107.678 202.582 99.4715Z" fill="#FF946E"/>
<path d="M188.943 58.5623C191.715 63.53 190.711 70.4467 188.149 74.8869C186.62 77.5441 185.636 77.5783 185.212 79.4882C184.018 84.8516 192.893 89.9756 191.583 92.4668C190.643 94.2448 185.879 92.0809 184.32 94.2009C182.616 96.526 187.414 100.385 187.828 107.629C187.891 108.757 188.285 115.61 184.359 118.409C180.696 121.023 174.983 118.453 168.533 115.586C161.417 112.426 156.755 108.659 155.406 107.516C151.144 103.907 146.565 100.028 143.769 93.4095C143.106 91.8416 139.283 82.3897 142.946 71.8535C147.758 58.0055 163.005 49.4866 175.621 51.1571C177.662 51.4209 185.548 52.4662 188.943 58.5623Z" fill="#26264F"/>
<path d="M188.427 90.8842C186.108 88.3588 182.893 91.358 183.283 94.9238C183.673 98.4896 187.545 101.801 190.809 100.712C194.067 99.618 191.544 94.2791 188.427 90.8842Z" fill="#FF946E"/>
<path d="M176.117 123.426C194.603 122.879 230.41 116.827 253.811 137.943C254.22 138.309 256.11 140.39 258.472 143.165C260.664 145.739 268.18 154.756 274.995 166.943C279.929 175.77 284.386 186.057 288.882 201.39C296.812 228.432 299.087 251.458 299.847 261.491C304.124 317.909 299.881 343.939 296.033 361.641C279.32 370.253 236.251 385.659 184.934 378C161.499 374.503 142.746 366.687 129.545 359.702C142.863 319.272 132.414 297.638 127.485 277.698C117.753 238.328 115.556 222.868 88.049 166.25C80.4648 150.638 57.0448 162.699 68.5745 148.997C86.2662 127.983 159.571 123.909 176.117 123.426Z" fill="url(#paint3_linear)"/>
<path opacity="0.3" d="M223.396 317.933C198.943 307.236 205.909 265.58 182.289 257.867C167.291 252.972 157.5 267.485 143.53 260.221C128.557 252.44 129.18 230.234 120.042 229.599C118.698 229.506 117.119 229.887 115.312 231.167C119.988 245.904 122.901 259.146 127.485 277.698C132.414 297.638 142.858 319.272 129.545 359.702C142.741 366.682 161.5 374.503 184.934 378C236.251 385.654 279.32 370.248 296.033 361.641C298.303 351.208 300.695 337.824 301.411 317.084C292.75 313.21 283.563 310.909 273.899 310.87C249.665 310.763 239.198 324.845 223.396 317.933Z" fill="url(#paint4_linear)"/>
<path d="M133.277 313.733C133.277 313.733 135.858 315.457 139.814 314.592C143.769 313.733 148.586 310.455 152.883 309.073C157.184 307.695 157.525 314.075 151.163 317.352C144.802 320.63 139.297 327.185 136.886 332.182C134.48 337.184 128.459 326.145 128.459 326.145L133.277 313.733Z" fill="#FF946E"/>
<path d="M130.524 131.754C120.753 131.354 76.339 130.601 39.6503 164.003C32.2706 170.719 -2.79115 202.641 0.180185 248.293C3.74579 303.05 60.1915 349.425 103.602 342.816C113.724 341.277 121.942 337.032 128.089 332.827L135.313 312.345C135.43 297.711 127.446 287.478 123.34 281.826C113.218 267.89 98.7896 265.453 96.661 253.104C95.4822 246.27 98.8091 240.677 101.776 235.676C111.893 218.648 128.045 216.552 136.404 207.843C145.03 198.85 154.899 176.317 130.524 131.754Z" fill="url(#paint5_linear)"/>
<path d="M191.715 173.924C196.435 182.511 218.798 220.997 266.3 235.163C275.643 237.947 321.694 251.663 358.641 225.349C401.369 194.923 401.384 132.721 391.9 97.2099C387.935 82.3702 381.958 70.8473 377.263 63.1491C371.568 54.6351 365.874 46.1211 360.185 37.6022C350.413 37.993 340.642 38.3838 330.871 38.7794C323.983 51.8362 316.228 71.0378 315.405 94.7187C314.592 118.224 321.031 133.928 312.76 140.107C304.168 146.525 288.722 138.72 274.946 133.488C218.155 111.922 151.485 124.857 147.914 139.028C146.57 144.386 153.146 154.224 191.715 173.924Z" fill="url(#paint6_linear)"/>
</g>
<defs>
<linearGradient id="paint0_linear" x1="90.8543" y1="788.434" x2="90.8543" y2="753.785" gradientUnits="userSpaceOnUse">
<stop stop-color="#FFC444"/>
<stop offset="0.9964" stop-color="#F36F56"/>
</linearGradient>
<linearGradient id="paint1_linear" x1="251.931" y1="803.743" x2="251.931" y2="763.951" gradientUnits="userSpaceOnUse">
<stop stop-color="#FFC444"/>
<stop offset="0.9964" stop-color="#F36F56"/>
</linearGradient>
<linearGradient id="paint2_linear" x1="254.16" y1="821.991" x2="104.85" y2="220.836" gradientUnits="userSpaceOnUse">
<stop stop-color="#444B8C"/>
<stop offset="0.9964" stop-color="#26264F"/>
</linearGradient>
<linearGradient id="paint3_linear" x1="232.454" y1="147.762" x2="365.184" y2="-132.839" gradientUnits="userSpaceOnUse">
<stop stop-color="#AA80F9"/>
<stop offset="0.9964" stop-color="#6165D7"/>
</linearGradient>
<linearGradient id="paint4_linear" x1="-190.922" y1="33.8581" x2="23.264" y2="193.463" gradientUnits="userSpaceOnUse">
<stop stop-color="#AA80F9"/>
<stop offset="0.9964" stop-color="#6165D7"/>
</linearGradient>
<linearGradient id="paint5_linear" x1="144.838" y1="106.318" x2="277.567" y2="-174.282" gradientUnits="userSpaceOnUse">
<stop stop-color="#AA80F9"/>
<stop offset="0.9964" stop-color="#6165D7"/>
</linearGradient>
<linearGradient id="paint6_linear" x1="115.752" y1="161.456" x2="-244.84" y2="198.898" gradientUnits="userSpaceOnUse">
<stop stop-color="#AA80F9"/>
<stop offset="0.9964" stop-color="#6165D7"/>
</linearGradient>
<clipPath id="clip0">
<rect width="397" height="824" fill="white"/>
</clipPath>
</defs>
</svg>
