<svg width="38" height="44" viewBox="0 0 38 44" fill="none" xmlns="http://www.w3.org/2000/svg">
<path fill-rule="evenodd" clip-rule="evenodd" d="M19 6.37496C13.6152 6.37496 9.24996 10.7402 9.24996 16.125C9.24996 21.5097 13.6152 25.875 19 25.875C24.3847 25.875 28.75 21.5097 28.75 16.125C28.75 10.7402 24.3847 6.37496 19 6.37496ZM12.5 16.125C12.5 12.5351 15.4101 9.62496 19 9.62496C22.5898 9.62496 25.5 12.5351 25.5 16.125C25.5 19.7148 22.5898 22.625 19 22.625C15.4101 22.625 12.5 19.7148 12.5 16.125Z" fill="#F2F2F2"/>
<path fill-rule="evenodd" clip-rule="evenodd" d="M21.3303 0.918105C19.8773 0.127396 18.1226 0.127396 16.6696 0.918105L16.4877 1.01713C16.1981 1.17474 15.8674 1.24052 15.5395 1.20574L15.3335 1.18388C13.6886 1.00938 12.0674 1.6809 11.0276 2.96743L10.8974 3.12855C10.6902 3.385 10.4098 3.57233 10.0936 3.66567L9.89487 3.72431C8.30838 4.19257 7.06757 5.43338 6.59931 7.01987L6.54066 7.21856C6.44732 7.53479 6.25999 7.81516 6.00355 8.02241L5.84243 8.15262C4.5559 9.19236 3.88438 10.8136 4.05888 12.4585L4.08074 12.6645C4.11552 12.9924 4.04974 13.3231 3.89213 13.6127L3.7931 13.7946C3.00239 15.2476 3.00239 17.0023 3.7931 18.4553L3.89213 18.6372C4.04974 18.9269 4.11552 19.2576 4.08074 19.5854L4.05888 19.7914C3.88438 21.4364 4.5559 23.0576 5.84243 24.0973L6.00355 24.2275C6.25999 24.4348 6.44732 24.7151 6.54066 25.0314L6.59931 25.2301C6.61868 25.2957 6.63938 25.3608 6.66137 25.4252L0.370785 36.3208C0.071139 36.8398 0.0814733 37.4816 0.397674 37.9907C0.713875 38.4998 1.28461 38.7935 1.88266 38.7549L6.64845 38.4476L8.76516 42.7285C9.03078 43.2658 9.57052 43.6132 10.1695 43.6325C10.7685 43.6517 11.3295 43.3398 11.6291 42.8208L17.9819 31.8174C18.6538 31.9609 19.349 31.9607 20.0208 31.8169L26.3739 42.8208C26.6735 43.3398 27.2345 43.6517 27.8335 43.6325C28.4325 43.6132 28.9722 43.2658 29.2378 42.7285L31.3546 38.4476L36.1203 38.7549C36.7184 38.7935 37.2891 38.4998 37.6053 37.9907C37.9215 37.4816 37.9319 36.8398 37.6322 36.3208L31.3397 25.4218C31.3613 25.3585 31.3816 25.2946 31.4006 25.2301L31.4593 25.0314C31.5526 24.7151 31.7399 24.4348 31.9964 24.2275L32.1575 24.0973C33.444 23.0576 34.1155 21.4364 33.941 19.7915L33.9192 19.5854C33.8844 19.2576 33.9502 18.9269 34.1078 18.6372L34.2068 18.4553C34.9975 17.0023 34.9975 15.2476 34.2068 13.7947L34.1078 13.6127C33.9502 13.3231 33.8844 12.9924 33.9192 12.6645L33.941 12.4585C34.1155 10.8136 33.444 9.19236 32.1575 8.15262L31.9964 8.02241C31.7399 7.81516 31.5526 7.5348 31.4593 7.21856L31.4006 7.01987C30.9324 5.43338 29.6915 4.19257 28.1051 3.72431L27.9064 3.66567C27.5901 3.57233 27.3098 3.385 27.1025 3.12855L26.9723 2.96743C25.9326 1.6809 24.3114 1.00938 22.6664 1.18388L22.4604 1.20574C22.1326 1.24052 21.8019 1.17474 21.5122 1.01713L21.3303 0.918105ZM29.1283 28.0916C28.8084 28.2728 28.4657 28.4192 28.1051 28.5256L27.9064 28.5843C27.5901 28.6776 27.3098 28.8649 27.1025 29.1214L26.9723 29.2825C26.078 30.389 24.7537 31.0406 23.354 31.0902L27.6703 38.5662L28.9214 36.036C29.2121 35.4479 29.828 35.0924 30.4826 35.1346L33.2995 35.3162L29.1283 28.0916ZM4.70354 35.3162L8.87395 28.0929C9.19316 28.2735 9.53513 28.4194 9.89487 28.5256L10.0936 28.5843C10.4098 28.6776 10.6902 28.8649 10.8974 29.1214L11.0276 29.2825C11.9225 30.3898 13.2482 31.0415 14.6489 31.0903L10.3327 38.5662L9.08162 36.036C8.79085 35.4479 8.17502 35.0924 7.52037 35.1346L4.70354 35.3162ZM18.2232 3.77275C18.7075 3.50918 19.2924 3.50918 19.7767 3.77275L19.9587 3.87178C20.8275 4.34461 21.8197 4.54196 22.8033 4.4376L23.0093 4.41575C23.5576 4.35758 24.098 4.58142 24.4446 5.01026L24.5748 5.17139C25.1966 5.94072 26.0376 6.50271 26.9863 6.78273L27.185 6.84137C27.7139 6.99746 28.1275 7.41106 28.2836 7.93989L28.3422 8.13858C28.6222 9.08728 29.1842 9.92836 29.9535 10.5501L30.1147 10.6803C30.5435 11.0269 30.7673 11.5673 30.7092 12.1156L30.6873 12.3216C30.583 13.3053 30.7803 14.2974 31.2531 15.1662L31.3522 15.3482C31.6157 15.8325 31.6157 16.4174 31.3522 16.9017L31.2531 17.0837C30.7803 17.9525 30.583 18.9447 30.6873 19.9283L30.7092 20.1343C30.7673 20.6826 30.5435 21.223 30.1147 21.5696L29.9535 21.6998C29.1842 22.3216 28.6222 23.1626 28.3422 24.1114L28.2836 24.31C28.1275 24.8389 27.7139 25.2525 27.185 25.4086L26.9863 25.4672C26.0376 25.7472 25.1966 26.3092 24.5748 27.0785L24.4446 27.2397C24.098 27.6685 23.5576 27.8923 23.0093 27.8342L22.8033 27.8123C21.8197 27.708 20.8275 27.9053 19.9587 28.3781L19.7767 28.4772C19.2924 28.7407 18.7075 28.7407 18.2232 28.4772L18.0412 28.3781C17.1724 27.9053 16.1803 27.708 15.1966 27.8123L14.9906 27.8342C14.4423 27.8923 13.9019 27.6685 13.5553 27.2397L13.4251 27.0785C12.8034 26.3092 11.9623 25.7472 11.0136 25.4672L10.8149 25.4086C10.2861 25.2525 9.87246 24.8389 9.71637 24.31L9.65772 24.1114C9.37771 23.1626 8.81572 22.3216 8.04638 21.6998L7.88526 21.5696C7.45642 21.223 7.23258 20.6826 7.29075 20.1343L7.3126 19.9283C7.41695 18.9447 7.21961 17.9525 6.74677 17.0837L6.64775 16.9017C6.38418 16.4174 6.38418 15.8325 6.64775 15.3482L6.74677 15.1662C7.21961 14.2974 7.41695 13.3053 7.3126 12.3216L7.29075 12.1156C7.23258 11.5673 7.45642 11.0269 7.88526 10.6803L8.04638 10.5501C8.81572 9.92836 9.37771 9.08728 9.65772 8.13858L9.71637 7.93989C9.87246 7.41106 10.2861 6.99746 10.8149 6.84137L11.0136 6.78273C11.9623 6.50271 12.8034 5.94072 13.4251 5.17138L13.5553 5.01026C13.9019 4.58142 14.4423 4.35758 14.9906 4.41575L15.1966 4.4376C16.1803 4.54196 17.1724 4.34461 18.0412 3.87178L18.2232 3.77275Z" fill="#F2F2F2"/>
</svg>
