<svg width="137" height="136" viewBox="0 0 137 136" fill="none" xmlns="http://www.w3.org/2000/svg">
<path d="M22.4615 57.8462C19.6364 57.8462 17.3462 60.1192 17.3462 62.9231V78.1538C17.3462 80.9577 19.6364 83.2308 22.4615 83.2308C25.2867 83.2308 27.5769 80.9577 27.5769 78.1538V68H37.8077C40.6328 68 42.9231 65.727 42.9231 62.9231C42.9231 60.1192 40.6328 57.8462 37.8077 57.8462H22.4615Z" fill="#F2F2F2"/>
<path d="M119.654 113.692C119.654 116.496 117.364 118.769 114.538 118.769H99.1923C96.3672 118.769 94.0769 116.496 94.0769 113.692C94.0769 110.888 96.3672 108.615 99.1923 108.615H109.423V98.4615C109.423 95.6576 111.713 93.3846 114.538 93.3846C117.364 93.3846 119.654 95.6576 119.654 98.4615V113.692Z" fill="#F2F2F2"/>
<path d="M73.6154 62.9231C73.6154 60.1192 71.3251 57.8462 68.5 57.8462C65.6749 57.8462 63.3846 60.1192 63.3846 62.9231V63.7897C57.4242 65.8806 53.1538 71.5223 53.1538 78.1538C53.1538 86.5656 60.0246 93.3846 68.5 93.3846C71.3251 93.3846 73.6154 95.6576 73.6154 98.4615C73.6154 101.265 71.3251 103.538 68.5 103.538C65.6749 103.538 63.3846 101.265 63.3846 98.4615C63.3846 95.6576 61.0944 93.3846 58.2692 93.3846C55.4441 93.3846 53.1538 95.6576 53.1538 98.4615C53.1538 105.093 57.4242 110.735 63.3846 112.826V113.692C63.3846 116.496 65.6749 118.769 68.5 118.769C71.3251 118.769 73.6154 116.496 73.6154 113.692V112.826C79.5758 110.735 83.8462 105.093 83.8462 98.4615C83.8462 90.0498 76.9754 83.2308 68.5 83.2308C65.6749 83.2308 63.3846 80.9577 63.3846 78.1538C63.3846 75.3499 65.6749 73.0769 68.5 73.0769C71.3251 73.0769 73.6154 75.3499 73.6154 78.1538C73.6154 80.9577 75.9056 83.2308 78.7308 83.2308C81.5559 83.2308 83.8462 80.9577 83.8462 78.1538C83.8462 71.5223 79.5758 65.8806 73.6154 63.7897V62.9231Z" fill="#F2F2F2"/>
<path fill-rule="evenodd" clip-rule="evenodd" d="M101.446 2.51907C102.841 3.19838 103.849 4.47015 104.186 5.97558L108.106 23.4839L113.535 22.4063C116.213 21.8748 118.839 23.5241 119.501 26.1532L123.648 42.6154H129.885C132.71 42.6154 135 44.8884 135 47.6923V128.923C135 131.727 132.71 134 129.885 134H7.11538C4.29024 134 2 131.727 2 128.923V47.6923C2 44.8884 4.29024 42.6154 7.11538 42.6154H11.0872L97.0142 2.48323C98.4201 1.82658 100.051 1.83977 101.446 2.51907ZM95.5856 14.3724L98.0717 25.4757L52.4031 34.5408L95.5856 14.3724ZM113.102 42.6154L110.759 33.3123L63.8911 42.6154H113.102ZM12.2308 123.846V52.7692H124.769V123.846H12.2308Z" fill="#F2F2F2"/>
<path d="M22.4615 57.8462C19.6364 57.8462 17.3462 60.1192 17.3462 62.9231V78.1538C17.3462 80.9577 19.6364 83.2308 22.4615 83.2308C25.2867 83.2308 27.5769 80.9577 27.5769 78.1538V68H37.8077C40.6328 68 42.9231 65.727 42.9231 62.9231C42.9231 60.1192 40.6328 57.8462 37.8077 57.8462H22.4615Z" stroke="#7A62E6" stroke-width="3" stroke-linecap="round"/>
<path d="M119.654 113.692C119.654 116.496 117.364 118.769 114.538 118.769H99.1923C96.3672 118.769 94.0769 116.496 94.0769 113.692C94.0769 110.888 96.3672 108.615 99.1923 108.615H109.423V98.4615C109.423 95.6576 111.713 93.3846 114.538 93.3846C117.364 93.3846 119.654 95.6576 119.654 98.4615V113.692Z" stroke="#7A62E6" stroke-width="3" stroke-linecap="round"/>
<path d="M73.6154 62.9231C73.6154 60.1192 71.3251 57.8462 68.5 57.8462C65.6749 57.8462 63.3846 60.1192 63.3846 62.9231V63.7897C57.4242 65.8806 53.1538 71.5223 53.1538 78.1538C53.1538 86.5656 60.0246 93.3846 68.5 93.3846C71.3251 93.3846 73.6154 95.6576 73.6154 98.4615C73.6154 101.265 71.3251 103.538 68.5 103.538C65.6749 103.538 63.3846 101.265 63.3846 98.4615C63.3846 95.6576 61.0944 93.3846 58.2692 93.3846C55.4441 93.3846 53.1538 95.6576 53.1538 98.4615C53.1538 105.093 57.4242 110.735 63.3846 112.826V113.692C63.3846 116.496 65.6749 118.769 68.5 118.769C71.3251 118.769 73.6154 116.496 73.6154 113.692V112.826C79.5758 110.735 83.8462 105.093 83.8462 98.4615C83.8462 90.0498 76.9754 83.2308 68.5 83.2308C65.6749 83.2308 63.3846 80.9577 63.3846 78.1538C63.3846 75.3499 65.6749 73.0769 68.5 73.0769C71.3251 73.0769 73.6154 75.3499 73.6154 78.1538C73.6154 80.9577 75.9056 83.2308 78.7308 83.2308C81.5559 83.2308 83.8462 80.9577 83.8462 78.1538C83.8462 71.5223 79.5758 65.8806 73.6154 63.7897V62.9231Z" stroke="#7A62E6" stroke-width="3" stroke-linecap="round"/>
<path fill-rule="evenodd" clip-rule="evenodd" d="M101.446 2.51907C102.841 3.19838 103.849 4.47015 104.186 5.97558L108.106 23.4839L113.535 22.4063C116.213 21.8748 118.839 23.5241 119.501 26.1532L123.648 42.6154H129.885C132.71 42.6154 135 44.8884 135 47.6923V128.923C135 131.727 132.71 134 129.885 134H7.11538C4.29024 134 2 131.727 2 128.923V47.6923C2 44.8884 4.29024 42.6154 7.11538 42.6154H11.0872L97.0142 2.48323C98.4201 1.82658 100.051 1.83977 101.446 2.51907ZM95.5856 14.3724L98.0717 25.4757L52.4031 34.5408L95.5856 14.3724ZM113.102 42.6154L110.759 33.3123L63.8911 42.6154H113.102ZM12.2308 123.846V52.7692H124.769V123.846H12.2308Z" stroke="#7A62E6" stroke-width="3" stroke-linecap="round"/>
</svg>
