<svg width="36" height="44" viewBox="0 0 36 44" fill="none" xmlns="http://www.w3.org/2000/svg">
<path fill-rule="evenodd" clip-rule="evenodd" d="M8.25 5.75C8.25 3.95507 9.70507 2.5 11.5 2.5H12.7416C13.6329 1.50438 14.9298 0.875 16.375 0.875C17.8202 0.875 19.1171 1.50438 20.0084 2.5H21.25C23.0449 2.5 24.5 3.95507 24.5 5.75H27.75C30.4424 5.75 32.625 7.93261 32.625 10.625V18.75C32.625 19.6475 31.8975 20.375 31 20.375C30.1025 20.375 29.375 19.6475 29.375 18.75V10.625C29.375 9.72754 28.6475 9 27.75 9H24.5C24.5 10.7949 23.0449 12.25 21.25 12.25H11.5C9.70507 12.25 8.25 10.7949 8.25 9H5C4.10254 9 3.375 9.72754 3.375 10.625V36.625C3.375 37.5225 4.10254 38.25 5 38.25H11.5C12.3975 38.25 13.125 38.9775 13.125 39.875C13.125 40.7725 12.3975 41.5 11.5 41.5H5C2.30761 41.5 0.125 39.3174 0.125 36.625V10.625C0.125 7.93261 2.30761 5.75 5 5.75H8.25ZM14.9664 4.93868C15.2498 4.44873 15.7756 4.125 16.375 4.125C16.9744 4.125 17.5002 4.44873 17.7836 4.93868L18.2529 5.75H21.25V9H11.5V5.75H14.4971L14.9664 4.93868Z" fill="#F2F2F2"/>
<path d="M30.524 29.649C31.1587 29.0144 31.1587 27.9856 30.524 27.351C29.8894 26.7163 28.8606 26.7163 28.226 27.351L22.875 32.7019L20.774 30.601C20.1394 29.9663 19.1106 29.9663 18.476 30.601C17.8413 31.2356 17.8413 32.2644 18.476 32.899L21.726 36.149C22.3606 36.7836 23.3894 36.7836 24.024 36.149L30.524 29.649Z" fill="#F2F2F2"/>
<path fill-rule="evenodd" clip-rule="evenodd" d="M13.125 31.75C13.125 25.4678 18.2178 20.375 24.5 20.375C30.7822 20.375 35.875 25.4678 35.875 31.75C35.875 38.0322 30.7822 43.125 24.5 43.125C18.2178 43.125 13.125 38.0322 13.125 31.75ZM24.5 23.625C20.0127 23.625 16.375 27.2627 16.375 31.75C16.375 36.2373 20.0127 39.875 24.5 39.875C28.9873 39.875 32.625 36.2373 32.625 31.75C32.625 27.2627 28.9873 23.625 24.5 23.625Z" fill="#F2F2F2"/>
</svg>
