<svg width="36" height="40" viewBox="0 0 36 40" fill="none" xmlns="http://www.w3.org/2000/svg">
<path fill-rule="evenodd" clip-rule="evenodd" d="M13.6212 2.05218C14.5187 0.497727 16.5064 -0.0348665 18.0608 0.862596L23.69 4.1126C25.2444 5.01006 25.777 6.99773 24.8796 8.55218L12.8839 29.3293C12.6316 29.7663 12.281 30.1385 11.86 30.4165L4.9928 34.9506C5.52784 35.2988 6.1651 35.6573 6.875 35.9531C8.96374 36.8234 11.5615 37.1257 14.2125 35.1375C17.0537 33.0066 17.7209 30.9691 18.177 29.0533C18.2255 28.8495 18.2723 28.6364 18.3205 28.4164C18.7175 26.6068 19.2182 24.324 21.6639 22.8566C24.0523 21.4236 26.3059 21.1516 28.54 21.6481C30.66 22.1192 32.6988 23.2742 34.7111 24.4816C35.4806 24.9433 35.7302 25.9415 35.2684 26.711C34.8067 27.4806 33.8085 27.7302 33.0389 27.2684C30.9887 26.0382 29.3712 25.1621 27.835 24.8207C26.4129 24.5047 25.0102 24.6389 23.3361 25.6434C22.1423 26.3597 21.9387 27.2341 21.4898 29.1621C21.4426 29.3648 21.3927 29.5791 21.3386 29.8061C20.7791 32.1559 19.8213 34.9934 16.1625 37.7375C12.3135 40.6243 8.41126 40.1141 5.625 38.9531C4.24731 38.3791 3.11395 37.6401 2.32969 37.0519C1.93504 36.756 1.6221 36.4931 1.40369 36.3002C1.29432 36.2036 1.20819 36.1241 1.14688 36.0662C1.11622 36.0373 1.09172 36.0137 1.07359 35.9961L1.05119 35.9742L1.0436 35.9667L1.04072 35.9638L1.03951 35.9626C1.03906 35.9621 1.03862 35.9617 1.71179 35.2883C1.71178 35.2883 1.71176 35.2883 1.71175 35.2882L1.03845 35.9615C0.512487 35.4356 0.422446 34.6388 0.768334 34.0201C0.683052 33.7474 0.644279 33.4506 0.663168 33.1359L1.19595 24.2596L2.81803 24.357L1.19595 24.2596C1.22618 23.756 1.37325 23.2663 1.62553 22.8293L13.6212 2.05218ZM22.065 6.92718L16.4358 3.67718L14.8108 6.49176L20.44 9.74176L22.065 6.92718ZM18.815 12.5563L13.1858 9.30634L4.44011 24.4543L3.03282 23.6418L4.44011 24.4543L4.00469 31.7085L10.0693 27.7043L18.815 12.5563Z" fill="#F2F2F2"/>
</svg>
