<svg width="601" height="690" viewBox="0 0 601 690" fill="none" xmlns="http://www.w3.org/2000/svg">
<g clip-path="url(#clip0)">
<path d="M584.281 303.773L119.866 301.767C117.579 301.752 116.532 298.404 118.273 296.677L165.316 250V42.5321C165.316 34.1673 171.425 26.9827 178.996 26.4811L584.296 0.0294503C593.474 -0.575412 601.015 6.5059 601.015 15.7706V287C601 296.309 593.504 303.803 584.281 303.773Z" fill="#272A5D"/>
<path d="M284.15 68.2608L199.374 72.7752V61.7254L284.15 56.975V68.2608Z" fill="#D8DEE8"/>
<path d="M284.15 90.8178L199.374 94.8601V83.825L284.15 79.532V90.8178Z" fill="#D8DEE8"/>
<path d="M284.15 126.357L199.374 129.662V118.612L284.15 115.071V126.357Z" fill="#D8DEE8"/>
<path d="M284.15 148.914L199.374 151.747V140.712L284.15 137.643V148.914Z" fill="#D8DEE8"/>
<path d="M559.785 239.673L199.374 243.435V232.385L559.785 227.635V239.673Z" fill="#D8DEE8"/>
<path d="M559.785 263.764L199.374 265.52V254.47L559.785 251.726V263.764Z" fill="#D8DEE8"/>
<path d="M284.15 184.453L199.374 186.548V175.498L284.15 173.167V184.453Z" fill="#D8DEE8"/>
<path d="M284.15 207.01L199.374 208.633V197.598L284.15 195.739V207.01Z" fill="#D8DEE8"/>
<path d="M559.785 202.983L317.071 207.571V55.131L319.285 55.0129V205.151L559.785 200.475V202.983Z" fill="#D8DEE8"/>
<path d="M348.709 164.021L347.101 162.398L395.118 109.052L443.342 124.631L491.979 79.4287L542.048 103.195L540.941 105.453L492.319 82.3498L443.844 127.375L395.738 111.796L348.709 164.021Z" fill="#D8DEE8"/>
<path opacity="0.7" d="M355.645 162.973C355.645 167.517 352.177 171.294 347.898 171.412C343.633 171.53 340.18 167.96 340.18 163.431C340.18 158.902 343.633 155.125 347.898 154.992C352.177 154.859 355.645 158.43 355.645 162.973Z" fill="url(#paint0_linear)"/>
<path opacity="0.7" d="M403.352 110.1C403.352 114.703 399.796 118.568 395.428 118.73C391.06 118.907 387.533 115.337 387.533 110.749C387.533 106.175 391.06 102.31 395.428 102.118C399.796 101.927 403.352 105.497 403.352 110.1Z" fill="url(#paint1_linear)"/>
<path opacity="0.7" d="M451.694 125.693C451.694 130.34 448.064 134.235 443.593 134.397C439.137 134.56 435.521 130.93 435.521 126.298C435.521 121.666 439.137 117.771 443.593 117.594C448.064 117.417 451.694 121.046 451.694 125.693Z" fill="url(#paint2_linear)"/>
<path opacity="0.7" d="M500.435 80.4909C500.435 85.1971 496.716 89.1803 492.142 89.3868C487.582 89.5934 483.878 85.9642 483.878 81.2876C483.878 76.5962 487.567 72.6277 492.142 72.3917C496.731 72.1704 500.435 75.7996 500.435 80.4909Z" fill="url(#paint3_linear)"/>
<path opacity="0.7" d="M549.987 103.977C549.987 108.728 546.18 112.74 541.502 112.932C536.824 113.124 533.047 109.421 533.047 104.685C533.047 99.9497 536.824 95.937 541.502 95.7304C546.18 95.5239 549.987 99.2121 549.987 103.977Z" fill="url(#paint4_linear)"/>
<path d="M274.278 252.434L284.534 241.251C286.437 239.009 289.403 235.999 293.653 233.388C301.902 228.328 313.25 225.85 314.947 228.741C316.88 232.016 306.093 241.724 302.418 244.925C297.342 248.598 292.281 252.286 287.204 255.975L274.278 252.434Z" fill="url(#paint5_linear)"/>
<path d="M55.3071 176.428C52.5182 177.475 10.0639 194.367 1.34285 238.67C0.634539 242.255 -6.18293 280.317 19.6408 307.211C48.5929 337.365 104.343 336.613 126.477 311.415C131.642 305.544 134.357 299.023 135.892 293.55L130.063 278.059C122.951 269.473 113.256 267.437 108.091 266.169C95.3413 263.026 85.7054 268.706 78.4009 262.554C74.3577 259.146 73.5608 254.263 72.8378 249.882C70.3882 234.981 78.7994 225.82 79.4191 216.629C79.8766 209.754 82.2819 194.707 73.31 184.896C67.614 178.67 59.7488 176.974 55.3071 176.428Z" fill="url(#paint6_linear)"/>
<path d="M38.7652 670.202C38.2634 667.473 29.4539 665.009 25.1007 668.653C22.9315 670.467 21.4411 674.141 22.6954 675.808C23.1529 676.413 21.2788 677.475 23.0791 677.49C28.9964 677.563 39.2521 672.902 38.7652 670.202Z" fill="url(#paint7_linear)"/>
<path d="M29.5276 671.19L20.4672 669.907C24.658 664.847 23.8907 648.766 23.8907 648.766L33.5266 650.92C33.5266 650.92 32.4346 655.331 30.5606 661.852C29.9113 664.079 29.6309 667.561 29.5276 671.19Z" fill="url(#paint8_linear)"/>
<path d="M30.3244 670.069C30.3244 670.069 19.4194 667.561 18.2389 669.715C17.0584 671.884 16.1435 677.667 23.0643 677.49C29.985 677.313 30.9442 671.913 30.3244 670.069Z" fill="url(#paint9_linear)"/>
<path d="M163.088 680.426C162.217 677.8 153.142 676.59 149.335 680.809C147.446 682.904 146.487 686.754 147.963 688.23C148.494 688.761 146.797 690.074 148.568 689.852C154.456 689.085 163.959 683.037 163.088 680.426Z" fill="url(#paint10_linear)"/>
<path d="M154.087 682.697H144.938C148.391 677.106 145.366 661.276 145.366 661.276L155.208 662.058C155.208 662.058 154.736 666.587 153.806 673.3C153.467 675.601 153.674 679.098 154.087 682.697Z" fill="url(#paint11_linear)"/>
<path d="M177.8 336.731C182.035 350.731 188.1 373.318 191.996 401.658C203.107 482.488 179.482 485.07 183.895 574.648C185.296 603.239 159.119 669.169 156.817 670.63C155.695 670.733 154.485 670.807 153.201 670.777C150.929 670.703 147.712 670.364 143.978 669.243C139.832 668.535 124.869 628.039 128.337 603.947C130.786 586.908 130.078 568.615 128.661 532.043C128.425 526.112 113.27 416.735 113.27 416.735C108.652 457.217 103.354 491.62 98.75 518.293C83.9641 603.992 35.9171 655.847 33.4085 656.688C32.9068 656.88 28.4061 658.518 24.717 656.098C23.079 655.021 22.5183 653.62 22.5183 653.62C21.2345 652.617 22.902 568.069 37.5551 504.44C58.8339 412.088 49.5668 390.475 56.3105 349.227C62.1098 313.51 177.8 336.731 177.8 336.731Z" fill="#373F7F"/>
<path d="M91.8588 169.229C105.981 168.816 138.445 163.829 156.33 179.91C156.64 180.19 152.98 182.152 154.78 184.262C156.448 186.224 162.203 193.084 167.412 202.378C171.189 209.105 174.583 216.939 178.022 228.623C184.087 249.218 185.813 266.759 186.403 274.401C189.664 317.376 186.433 337.203 183.496 350.687C170.732 357.237 137.825 368.981 98.6025 363.153C80.7029 360.483 66.3597 354.538 56.281 349.212C66.4482 318.408 58.4797 301.929 54.7021 286.749C49.3307 265.092 49.2422 266.729 44.83 249.528C37.5404 221.144 36.3451 192.125 41.3475 186.194C54.8644 170.173 79.2125 169.597 91.8588 169.229Z" fill="url(#paint12_linear)"/>
<path d="M154.721 681.488C154.721 681.488 143.565 680.529 142.709 682.83C141.839 685.132 141.75 691.003 148.568 689.852C155.385 688.702 155.592 683.214 154.721 681.488Z" fill="url(#paint13_linear)"/>
<path d="M131.613 153.03C135.981 145.639 134.033 137.186 133.605 135.356C131.76 127.714 131.081 126.549 129.665 124.941L127.658 122.816C127.658 122.816 127.54 122.728 127.407 122.639C126.005 121.681 120.796 120.117 119.675 120.058C116.089 119.881 108.77 132.76 104.579 152.602C104.239 153.31 103.9 154.033 103.575 154.756C101.495 159.256 99.724 163.682 98.1893 168.004C73.915 170.055 70.5357 172.902 70.4324 174.554C70.2111 178.021 84.0379 182.019 94.4412 183.539C117.137 186.858 140.452 180.883 140.348 176.649C140.304 174.805 135.789 172.415 116.561 169.892C117.004 166.706 117.461 163.534 117.904 160.347C119.468 159.993 128.396 158.489 131.613 153.03Z" fill="url(#paint14_linear)"/>
<path d="M136.187 119.143C134.549 125.206 129.96 130.916 128.233 131.565C128.012 131.653 126.728 132.199 125.4 133.379C125.223 133.542 125.046 133.733 124.869 133.999C122.523 137.466 127.392 143.588 125.769 144.975C124.589 145.993 120.899 143.234 120.117 144.164C119.38 145.049 122.257 148.058 121.416 149.121C120.781 149.932 118.893 148.53 117.181 149.578C116.325 150.094 116.384 150.699 115.115 152.646C114.392 153.738 113.492 154.918 112.857 155.523C109.817 158.518 103.531 158.238 102.764 156.512C102.557 156.025 102.911 155.774 102.941 154.343C102.941 154.343 102.97 153.03 102.483 151.378C101.805 149.017 99.2222 146.76 96.8022 143.81C92.331 138.351 91.726 134.545 91.5784 133.276C91.5341 132.819 91.5046 132.494 91.4899 132.243C91.239 127.39 92.9803 120.825 96.0644 117.328C101.229 111.457 107.973 116.694 115.971 111.649C125.208 105.836 123.747 94.1224 127.953 93.9896C132.616 93.8716 139.212 107.946 136.187 119.143Z" fill="#26264F"/>
<path d="M123.954 142.983C123.01 140.549 119.881 141.774 119.173 144.4C118.45 147.04 120.28 150.463 122.906 150.611C125.518 150.758 125.223 146.259 123.954 142.983Z" fill="url(#paint15_linear)"/>
<path d="M123.925 138.248L126.182 143.647C126.182 143.647 128.44 150.139 131.406 147.704C133.841 145.713 134.284 145.89 134.357 146.022C134.372 146.052 134.372 146.082 134.372 146.082C134.402 146.082 134.446 144.783 134.461 143.647C135.021 145.211 135.715 147.69 135.715 150.758C135.715 153.753 135.715 156.954 133.369 159.403C133.236 159.551 130.683 162.147 127.245 162.014C127.245 162.014 125.887 161.97 120.752 159.58C120.752 159.58 127.776 156.881 128.145 155.892C129.119 153.192 125.695 150.684 124.367 144.267C123.865 141.803 123.851 139.679 123.925 138.248Z" fill="#26264F"/>
<path d="M279.959 244.453C285.065 248.023 287.809 252.877 289.226 255.975C285.463 264.782 276.949 281.143 259.33 293.211C230.422 312.979 188.041 313.643 158.514 291.101C123.246 264.162 117.358 212.498 132.159 190.384C133.87 187.832 139.463 179.467 148.169 178.508C153.673 177.903 161.155 180.16 172.975 193.998C197.603 222.825 188.912 240.838 203.462 249.262C225.286 261.905 257.706 228.889 279.959 244.453Z" fill="url(#paint16_linear)"/>
<path d="M504.513 501.211C504.5 501.216 504.461 501.227 504.434 501.235L504.34 501.266C504.277 501.287 504.213 501.311 504.149 501.335C504.023 501.383 503.898 501.44 503.776 501.499C503.533 501.619 503.303 501.757 503.094 501.912C502.675 502.222 502.352 502.603 502.156 503.017C502.134 503.07 502.106 503.121 502.086 503.175L502.028 503.335C501.998 503.447 501.964 503.554 501.947 503.668C501.921 503.778 501.918 503.897 501.904 504.011C501.904 504.13 501.892 504.244 501.904 504.365C501.925 504.842 502.037 505.341 502.216 505.838C502.437 506.451 502.12 507.129 501.507 507.352C500.894 507.574 500.218 507.258 499.997 506.644C499.976 506.585 499.959 506.527 499.948 506.468L499.941 506.432C499.81 505.738 499.755 505.002 499.845 504.248C499.86 504.061 499.906 503.87 499.94 503.684C499.991 503.496 500.034 503.309 500.107 503.127C500.169 502.943 500.254 502.766 500.337 502.59L500.481 502.334C500.528 502.25 500.587 502.17 500.64 502.09C501.085 501.45 501.687 500.965 502.32 500.639C502.637 500.473 502.963 500.343 503.294 500.241C503.46 500.191 503.626 500.146 503.795 500.11C503.88 500.093 503.965 500.075 504.052 500.061C504.094 500.053 504.139 500.047 504.182 500.041L504.33 500.022C504.656 499.982 504.952 500.212 504.992 500.538C505.026 500.811 504.869 501.063 504.626 501.163L504.513 501.211Z" fill="url(#paint17_linear)"/>
<path d="M509.664 479.626L509.534 479.554C509.497 479.531 509.458 479.509 509.42 479.486C509.345 479.441 509.272 479.393 509.201 479.345C509.057 479.249 508.92 479.145 508.784 479.038C508.516 478.82 508.261 478.578 508.028 478.307C507.562 477.769 507.185 477.096 507.01 476.337C506.991 476.242 506.966 476.147 506.953 476.051L506.914 475.761C506.902 475.567 506.889 475.371 506.9 475.177C506.902 474.98 506.931 474.791 506.953 474.599C506.991 474.412 507.02 474.22 507.075 474.04C507.273 473.307 507.599 472.644 507.98 472.048L507.995 472.024C508.345 471.474 509.075 471.312 509.625 471.662C510.173 472.013 510.333 472.744 509.983 473.295C509.949 473.347 509.909 473.4 509.868 473.446C509.517 473.84 509.228 474.261 509.029 474.697C508.973 474.806 508.942 474.915 508.897 475.025C508.868 475.136 508.827 475.247 508.811 475.36C508.784 475.472 508.776 475.584 508.761 475.698L508.755 475.868C508.753 475.926 508.76 475.982 508.76 476.04C508.788 476.498 508.947 476.97 509.22 477.414C509.356 477.635 509.517 477.849 509.698 478.05C509.789 478.15 509.884 478.248 509.983 478.34C510.032 478.387 510.083 478.432 510.134 478.476L510.209 478.539C510.232 478.557 510.263 478.582 510.273 478.591L510.364 478.679C510.601 478.906 510.607 479.282 510.38 479.519C510.189 479.715 509.894 479.752 509.664 479.626Z" fill="url(#paint18_linear)"/>
<path d="M511.051 505.419C511.041 505.429 511.012 505.456 510.991 505.475L510.919 505.543C510.871 505.59 510.825 505.638 510.778 505.687C510.685 505.787 510.597 505.89 510.513 505.997C510.347 506.211 510.198 506.435 510.078 506.666C509.835 507.127 509.708 507.611 509.711 508.069C509.715 508.126 509.71 508.183 509.717 508.241L509.734 508.41C509.756 508.523 509.771 508.634 509.806 508.744C509.83 508.855 509.879 508.963 509.915 509.071C509.967 509.179 510.006 509.286 510.068 509.391C510.295 509.811 510.611 510.211 510.988 510.58C511.453 511.036 511.461 511.785 511.005 512.251C510.549 512.718 509.803 512.727 509.338 512.271C509.293 512.228 509.254 512.182 509.218 512.134L509.197 512.106C508.779 511.538 508.408 510.899 508.163 510.183C508.096 510.008 508.054 509.818 508.004 509.634C507.97 509.443 507.927 509.257 507.913 509.06C507.888 508.867 507.888 508.67 507.889 508.476L507.907 508.183C507.914 508.086 507.932 507.991 507.945 507.894C508.069 507.125 508.402 506.427 508.83 505.857C509.044 505.569 509.283 505.311 509.535 505.075C509.663 504.958 509.794 504.845 509.931 504.739C509.999 504.687 510.068 504.634 510.14 504.584C510.174 504.558 510.213 504.533 510.249 504.509L510.375 504.428C510.65 504.25 511.018 504.328 511.194 504.605C511.343 504.836 511.311 505.132 511.136 505.326L511.051 505.419Z" fill="url(#paint19_linear)"/>
<path d="M519.367 505.148C519.366 505.161 519.356 505.2 519.35 505.229L519.333 505.326C519.321 505.391 519.311 505.459 519.303 505.527C519.284 505.662 519.275 505.797 519.269 505.933C519.257 506.204 519.269 506.472 519.306 506.73C519.378 507.246 519.557 507.711 519.828 508.081C519.864 508.126 519.894 508.173 519.934 508.216L520.046 508.343C520.13 508.422 520.208 508.503 520.3 508.572C520.384 508.647 520.486 508.706 520.579 508.772C520.684 508.828 520.778 508.893 520.891 508.94C521.32 509.148 521.811 509.284 522.333 509.363C522.977 509.459 523.42 510.059 523.324 510.706C523.227 511.352 522.626 511.798 521.982 511.702C521.921 511.693 521.861 511.679 521.804 511.661L521.77 511.651C521.098 511.437 520.424 511.137 519.806 510.7C519.65 510.597 519.503 510.468 519.356 510.349C519.216 510.215 519.073 510.088 518.947 509.938C518.815 509.797 518.7 509.637 518.586 509.481L518.431 509.233C518.38 509.15 518.338 509.061 518.293 508.977C517.945 508.28 517.806 507.521 517.821 506.807C517.828 506.45 517.869 506.1 517.937 505.76C517.971 505.59 518.012 505.422 518.061 505.255C518.085 505.172 518.112 505.089 518.14 505.007C518.153 504.966 518.17 504.923 518.184 504.882L518.238 504.743C518.357 504.437 518.701 504.286 519.007 504.405C519.263 504.504 519.409 504.762 519.38 505.023L519.367 505.148Z" fill="url(#paint20_linear)"/>
<path d="M516.046 480.191L515.947 480.08C515.92 480.046 515.889 480.012 515.863 479.979C515.807 479.911 515.755 479.842 515.703 479.773C515.598 479.635 515.504 479.492 515.411 479.345C515.23 479.05 515.069 478.737 514.939 478.405C514.679 477.743 514.544 476.982 514.628 476.207C514.641 476.11 514.649 476.012 514.669 475.917L514.729 475.63C514.781 475.443 514.833 475.254 514.908 475.074C514.974 474.888 515.064 474.72 515.149 474.545C515.246 474.382 515.337 474.209 515.448 474.057C515.876 473.43 516.404 472.912 516.959 472.476L516.982 472.459C517.495 472.055 518.236 472.144 518.638 472.657C519.04 473.171 518.95 473.914 518.437 474.317C518.388 474.356 518.331 474.392 518.28 474.422C517.819 474.679 517.407 474.979 517.076 475.325C516.987 475.409 516.921 475.503 516.842 475.592C516.778 475.687 516.703 475.779 516.65 475.879C516.588 475.976 516.543 476.079 516.492 476.182L516.43 476.341C516.409 476.395 516.397 476.45 516.378 476.505C516.253 476.945 516.247 477.445 516.358 477.955C516.414 478.209 516.495 478.465 516.6 478.715C516.652 478.839 516.709 478.964 516.773 479.083C516.804 479.143 516.837 479.202 516.87 479.26L516.921 479.345C516.935 479.37 516.958 479.404 516.964 479.416L517.021 479.528C517.169 479.821 517.051 480.178 516.758 480.327C516.51 480.449 516.219 480.387 516.046 480.191Z" fill="url(#paint21_linear)"/>
<path d="M524.009 485.309L524.014 485.161C524.016 485.117 524.019 485.071 524.022 485.028C524.029 484.941 524.036 484.855 524.047 484.769C524.066 484.597 524.095 484.427 524.129 484.256C524.199 483.917 524.297 483.579 524.431 483.247C524.697 482.586 525.121 481.939 525.714 481.434C525.789 481.373 525.862 481.308 525.942 481.251L526.182 481.084C526.348 480.983 526.517 480.882 526.693 480.803C526.867 480.713 527.049 480.653 527.231 480.584C527.412 480.531 527.598 480.468 527.783 480.435C528.523 480.274 529.261 480.259 529.963 480.325L529.992 480.328C530.641 480.387 531.117 480.962 531.057 481.612C530.996 482.262 530.421 482.74 529.773 482.681C529.711 482.675 529.645 482.663 529.588 482.648C529.077 482.517 528.572 482.453 528.096 482.477C527.973 482.477 527.862 482.499 527.743 482.51C527.632 482.536 527.514 482.55 527.407 482.586C527.294 482.613 527.192 482.658 527.084 482.697L526.93 482.77C526.879 482.794 526.832 482.826 526.78 482.854C526.387 483.089 526.04 483.448 525.771 483.894C525.637 484.117 525.522 484.359 525.425 484.613C525.378 484.74 525.333 484.87 525.297 485.001C525.278 485.066 525.261 485.132 525.246 485.197L525.225 485.294C525.219 485.323 525.212 485.362 525.208 485.375L525.172 485.497C525.078 485.812 524.747 485.99 524.434 485.897C524.169 485.817 524.001 485.572 524.009 485.309Z" fill="url(#paint22_linear)"/>
<path d="M519.315 480.06C525.327 482.915 532.808 490.726 530.221 498.078C527.761 505.068 518.109 507.557 511.226 505.568C502.611 503.077 496.305 492.97 499.097 485.967C501.25 480.567 508.082 478.853 508.724 478.702C513.785 477.509 517.875 479.376 519.315 480.06Z" fill="url(#paint23_linear)"/>
<path d="M508.724 478.702C508.083 478.854 501.251 480.567 499.097 485.967C497.498 489.978 498.884 495.007 501.98 499.042C502.082 496.413 502.488 493.007 503.636 489.339C504.729 485.842 506.496 482.107 509.312 478.578C509.118 478.616 508.922 478.656 508.724 478.702Z" fill="url(#paint24_linear)"/>
<path d="M503.636 489.339C507.168 491.779 516.252 497.433 528.786 500.759C529.388 499.954 529.876 499.061 530.222 498.078C532.809 490.726 525.328 482.914 519.316 480.06C517.933 479.403 514.102 477.654 509.314 478.578C506.496 482.107 504.73 485.842 503.636 489.339Z" fill="url(#paint25_linear)"/>
<path d="M503.636 489.339C502.489 493.008 502.082 496.413 501.98 499.042C504.288 502.049 507.546 504.503 511.226 505.568C517.142 507.277 525.102 505.68 528.785 500.759C516.252 497.435 507.169 491.779 503.636 489.339Z" fill="url(#paint26_linear)"/>
<g opacity="0.49">
<path opacity="0.49" d="M508.724 478.702C508.171 478.833 503.01 480.127 500.222 483.946C505.486 480.911 508.581 480.882 510.486 481.967C514.53 484.273 513.334 491.668 518.013 493.558C521.782 495.079 525.032 491.282 527.28 492.649C528.511 493.397 529.297 495.607 528.31 501.347C529.133 500.397 529.789 499.306 530.221 498.078C532.808 490.726 525.326 482.913 519.314 480.06C517.875 479.376 513.785 477.509 508.724 478.702Z" fill="white"/>
</g>
<path d="M501.765 483.425C501.173 483.164 500.608 482.889 500.041 482.598C499.476 482.307 498.917 482.005 498.366 481.688C497.814 481.37 497.271 481.039 496.733 480.695C496.196 480.35 495.671 479.987 495.151 479.611C494.12 478.85 493.123 478.027 492.214 477.085L492.042 476.91L491.878 476.727C491.769 476.604 491.657 476.485 491.549 476.36C491.338 476.104 491.125 475.853 490.931 475.582C490.726 475.319 490.55 475.033 490.364 474.753C490.196 474.459 490.019 474.17 489.877 473.856L489.765 473.625C489.727 473.548 489.699 473.466 489.666 473.386L489.571 473.144C489.541 473.062 489.503 472.985 489.48 472.899L489.327 472.395C489.299 472.309 489.284 472.232 489.263 472.15C489.242 472.069 489.224 471.988 489.205 471.906C489.059 471.251 488.947 470.575 488.955 469.835C488.961 469.466 488.998 469.076 489.123 468.661C489.186 468.455 489.272 468.239 489.402 468.025C489.531 467.811 489.707 467.599 489.933 467.424C490.157 467.248 490.43 467.12 490.703 467.055C490.976 466.988 491.246 466.979 491.491 467.005C491.985 467.059 492.394 467.23 492.753 467.432C493.113 467.636 493.422 467.882 493.7 468.15C493.977 468.42 494.221 468.713 494.436 469.028C494.65 469.34 494.835 469.674 494.986 470.022C495.063 470.196 495.13 470.375 495.19 470.557L495.233 470.694L495.271 470.822C495.296 470.908 495.319 470.996 495.342 471.084C495.387 471.262 495.427 471.448 495.457 471.651C495.485 471.856 495.509 472.074 495.49 472.351C495.486 472.418 495.476 472.496 495.465 472.571L495.44 472.694C495.431 472.734 495.417 472.783 495.405 472.826C495.349 473.008 495.252 473.229 495.064 473.443C494.968 473.549 494.853 473.648 494.728 473.725C494.601 473.806 494.468 473.858 494.342 473.896C494.087 473.968 493.876 473.968 493.701 473.955C493.526 473.94 493.383 473.908 493.255 473.872C493.127 473.835 493.015 473.795 492.909 473.752C492.699 473.666 492.52 473.573 492.35 473.477C492.18 473.381 492.024 473.282 491.872 473.177C491.795 473.126 491.721 473.074 491.647 473.019L491.535 472.936L491.478 472.892L491.413 472.84L491.405 472.835C490.897 472.43 490.813 471.689 491.217 471.18C491.621 470.67 492.361 470.585 492.868 470.989C492.89 471.005 492.913 471.025 492.933 471.044C492.932 471.045 492.949 471.058 492.958 471.067L492.992 471.097L493.067 471.159C493.117 471.2 493.168 471.241 493.221 471.28C493.324 471.359 493.43 471.434 493.53 471.499C493.63 471.564 493.728 471.621 493.808 471.659C493.884 471.698 493.953 471.716 493.919 471.713C493.901 471.714 493.849 471.711 493.746 471.74C493.694 471.756 493.636 471.781 493.575 471.818C493.517 471.855 493.461 471.902 493.42 471.95C493.336 472.046 493.312 472.123 493.304 472.155C493.301 472.161 493.301 472.173 493.3 472.174C493.299 472.177 493.3 472.179 493.3 472.182C493.3 472.179 493.304 472.18 493.304 472.168C493.313 472.131 493.315 472.032 493.305 471.924C493.295 471.815 493.278 471.692 493.252 471.563C493.239 471.498 493.226 471.433 493.21 471.366L493.186 471.267L493.162 471.177C493.129 471.057 493.094 470.938 493.049 470.821C492.963 470.587 492.853 470.361 492.725 470.147C492.597 469.933 492.447 469.732 492.284 469.554C492.12 469.375 491.941 469.219 491.759 469.1C491.579 468.981 491.396 468.906 491.263 468.882C491.196 468.868 491.148 468.869 491.114 468.873C491.08 468.876 491.059 468.88 491.032 468.896C491.006 468.91 490.971 468.939 490.932 468.992C490.894 469.044 490.853 469.121 490.82 469.214C490.751 469.399 490.706 469.641 490.688 469.9C490.652 470.421 490.707 471.002 490.805 471.582C490.817 471.655 490.83 471.727 490.845 471.8C490.859 471.871 490.87 471.949 490.888 472.014L490.988 472.421C491.001 472.489 491.03 472.554 491.05 472.621L491.118 472.823C491.141 472.889 491.16 472.958 491.188 473.024L491.272 473.222C491.374 473.489 491.514 473.745 491.644 474.005C491.793 474.257 491.932 474.515 492.102 474.759C492.26 475.009 492.441 475.247 492.619 475.488C492.71 475.607 492.807 475.723 492.901 475.84L493.043 476.015L493.192 476.186C493.983 477.101 494.887 477.938 495.838 478.722C496.317 479.111 496.807 479.489 497.309 479.853C497.812 480.215 498.324 480.567 498.844 480.906C499.366 481.245 499.896 481.571 500.433 481.885C500.969 482.197 501.518 482.503 502.064 482.779L502.07 482.783C502.245 482.872 502.315 483.085 502.226 483.261C502.139 483.428 501.935 483.499 501.765 483.425Z" fill="url(#paint27_linear)"/>
<path d="M499.085 492.082C498.496 491.917 497.884 491.771 497.278 491.639C496.669 491.508 496.059 491.389 495.446 491.287C494.832 491.185 494.218 491.098 493.603 491.025C492.987 490.954 492.371 490.903 491.755 490.864C490.524 490.8 489.293 490.805 488.09 490.945L487.865 490.97L487.642 491.003C487.493 491.026 487.344 491.046 487.196 491.072C486.903 491.13 486.608 491.182 486.322 491.26C486.032 491.325 485.755 491.421 485.475 491.506C485.204 491.611 484.928 491.705 484.672 491.832L484.476 491.921C484.411 491.951 484.351 491.989 484.288 492.022L484.102 492.125C484.042 492.16 483.976 492.189 483.919 492.23L483.571 492.462C483.514 492.498 483.453 492.549 483.395 492.591C483.335 492.635 483.275 492.68 483.218 492.724C482.755 493.084 482.32 493.476 481.995 493.885C481.833 494.088 481.702 494.298 481.628 494.48C481.592 494.571 481.569 494.654 481.561 494.719C481.553 494.784 481.561 494.828 481.57 494.858C481.579 494.887 481.592 494.903 481.614 494.93C481.637 494.955 481.672 494.989 481.73 495.024C481.844 495.096 482.03 495.164 482.244 495.198C482.456 495.234 482.695 495.24 482.937 495.219C483.177 495.199 483.424 495.151 483.663 495.08C483.902 495.009 484.137 494.917 484.358 494.802C484.469 494.746 484.576 494.683 484.681 494.616L484.759 494.569L484.844 494.511C484.901 494.473 484.955 494.434 485.008 494.395C485.115 494.317 485.211 494.238 485.292 494.164C485.372 494.092 485.437 494.019 485.456 493.985C485.463 493.976 485.46 493.973 485.462 493.971C485.46 493.973 485.458 493.975 485.457 493.977C485.457 493.978 485.449 493.988 485.447 493.994C485.432 494.022 485.399 494.097 485.394 494.223C485.391 494.288 485.402 494.359 485.419 494.426C485.439 494.494 485.463 494.552 485.493 494.598C485.548 494.69 485.589 494.721 485.602 494.735C485.628 494.758 485.566 494.722 485.483 494.7C485.399 494.674 485.288 494.65 485.171 494.63C485.053 494.61 484.925 494.595 484.795 494.582C484.73 494.576 484.664 494.571 484.599 494.568L484.502 494.563L484.457 494.562C484.443 494.561 484.423 494.561 484.422 494.562C483.773 494.562 483.247 494.036 483.248 493.385C483.248 492.735 483.775 492.206 484.424 492.206C484.451 492.206 484.478 492.207 484.505 492.209L484.517 492.209L484.6 492.216L484.671 492.222L484.809 492.236C484.901 492.245 484.992 492.258 485.082 492.271C485.264 492.298 485.447 492.331 485.637 492.373C485.827 492.417 486.022 492.47 486.234 492.548C486.34 492.588 486.452 492.634 486.57 492.694C486.689 492.754 486.816 492.827 486.956 492.934C487.094 493.043 487.249 493.185 487.388 493.41C487.457 493.525 487.518 493.652 487.557 493.797C487.598 493.939 487.616 494.091 487.615 494.233C487.609 494.518 487.531 494.746 487.449 494.918C487.429 494.959 487.408 495.004 487.386 495.039L487.32 495.148C487.278 495.211 487.233 495.275 487.191 495.327C487.016 495.544 486.852 495.688 486.693 495.82C486.534 495.95 486.379 496.06 486.225 496.161C486.149 496.21 486.072 496.26 485.996 496.305L485.882 496.374L485.757 496.446C485.59 496.54 485.42 496.625 485.245 496.702C484.899 496.857 484.537 496.978 484.168 497.064C483.799 497.15 483.419 497.202 483.032 497.213C482.646 497.224 482.251 497.195 481.849 497.103C481.447 497.009 481.031 496.858 480.63 496.564C480.432 496.419 480.239 496.229 480.083 495.994C479.926 495.762 479.812 495.482 479.765 495.202C479.717 494.92 479.731 494.644 479.78 494.401C479.829 494.156 479.91 493.939 480.004 493.743C480.193 493.352 480.429 493.041 480.674 492.764C481.168 492.214 481.708 491.791 482.258 491.407C482.327 491.359 482.396 491.312 482.465 491.266C482.537 491.22 482.6 491.174 482.678 491.129L483.132 490.861C483.206 490.813 483.287 490.782 483.364 490.742L483.598 490.628C483.676 490.591 483.752 490.55 483.833 490.518L484.071 490.424C484.388 490.289 484.714 490.195 485.036 490.092C485.363 490.011 485.688 489.919 486.014 489.864C486.342 489.795 486.668 489.754 486.996 489.709C487.159 489.689 487.323 489.676 487.486 489.66L487.731 489.637L487.976 489.624C489.282 489.544 490.573 489.611 491.848 489.748C492.485 489.822 493.118 489.909 493.747 490.017C494.375 490.127 495 490.251 495.621 490.39C496.242 490.529 496.858 490.684 497.47 490.851C498.085 491.02 498.688 491.199 499.3 491.407C499.486 491.47 499.584 491.672 499.522 491.857C499.46 492.037 499.271 492.136 499.09 492.086L499.085 492.082Z" fill="url(#paint28_linear)"/>
</g>
<defs>
<linearGradient id="paint0_linear" x1="389.314" y1="34.46" x2="274.756" y2="390.95" gradientUnits="userSpaceOnUse">
<stop stop-color="#FF9085"/>
<stop offset="1" stop-color="#FB6FBB"/>
</linearGradient>
<linearGradient id="paint1_linear" x1="417.663" y1="41.3133" x2="301.241" y2="403.605" gradientUnits="userSpaceOnUse">
<stop stop-color="#FF9085"/>
<stop offset="1" stop-color="#FB6FBB"/>
</linearGradient>
<linearGradient id="paint2_linear" x1="466.477" y1="54.8886" x2="348.711" y2="421.362" gradientUnits="userSpaceOnUse">
<stop stop-color="#FF9085"/>
<stop offset="1" stop-color="#FB6FBB"/>
</linearGradient>
<linearGradient id="paint3_linear" x1="497.853" y1="63.2018" x2="378.216" y2="435.499" gradientUnits="userSpaceOnUse">
<stop stop-color="#FF9085"/>
<stop offset="1" stop-color="#FB6FBB"/>
</linearGradient>
<linearGradient id="paint4_linear" x1="550.064" y1="77.738" x2="429.116" y2="454.114" gradientUnits="userSpaceOnUse">
<stop stop-color="#FF9085"/>
<stop offset="1" stop-color="#FB6FBB"/>
</linearGradient>
<linearGradient id="paint5_linear" x1="314.755" y1="216.768" x2="260.892" y2="284.552" gradientUnits="userSpaceOnUse">
<stop stop-color="#FFC444"/>
<stop offset="0.9964" stop-color="#F36F56"/>
</linearGradient>
<linearGradient id="paint6_linear" x1="67.9509" y1="176.428" x2="67.9509" y2="330.09" gradientUnits="userSpaceOnUse">
<stop stop-color="#632CF2"/>
<stop offset="1" stop-color="#AE579D"/>
</linearGradient>
<linearGradient id="paint7_linear" x1="43.6523" y1="662.325" x2="24.2562" y2="675.217" gradientUnits="userSpaceOnUse">
<stop stop-color="#444B8C"/>
<stop offset="0.9964" stop-color="#26264F"/>
</linearGradient>
<linearGradient id="paint8_linear" x1="24.8813" y1="675.333" x2="29.1236" y2="645.321" gradientUnits="userSpaceOnUse">
<stop stop-color="#FFC444"/>
<stop offset="0.9964" stop-color="#F36F56"/>
</linearGradient>
<linearGradient id="paint9_linear" x1="42.1949" y1="660.133" x2="22.7988" y2="673.025" gradientUnits="userSpaceOnUse">
<stop stop-color="#444B8C"/>
<stop offset="0.9964" stop-color="#26264F"/>
</linearGradient>
<linearGradient id="paint10_linear" x1="166.829" y1="671.945" x2="149.429" y2="687.425" gradientUnits="userSpaceOnUse">
<stop stop-color="#444B8C"/>
<stop offset="0.9964" stop-color="#26264F"/>
</linearGradient>
<linearGradient id="paint11_linear" x1="150.065" y1="687.452" x2="150.065" y2="657.141" gradientUnits="userSpaceOnUse">
<stop stop-color="#FFC444"/>
<stop offset="0.9964" stop-color="#F36F56"/>
</linearGradient>
<linearGradient id="paint12_linear" x1="113.041" y1="168.179" x2="113.041" y2="364.728" gradientUnits="userSpaceOnUse">
<stop stop-color="#632CF2"/>
<stop offset="1" stop-color="#AE579D"/>
</linearGradient>
<linearGradient id="paint13_linear" x1="165.079" y1="669.978" x2="147.68" y2="685.459" gradientUnits="userSpaceOnUse">
<stop stop-color="#444B8C"/>
<stop offset="0.9964" stop-color="#26264F"/>
</linearGradient>
<linearGradient id="paint14_linear" x1="104.678" y1="177.027" x2="140.856" y2="106.349" gradientUnits="userSpaceOnUse">
<stop stop-color="#FFC444"/>
<stop offset="0.9964" stop-color="#F36F56"/>
</linearGradient>
<linearGradient id="paint15_linear" x1="145.737" y1="116.746" x2="51.5203" y2="235.313" gradientUnits="userSpaceOnUse">
<stop stop-color="#FFC444"/>
<stop offset="0.9964" stop-color="#F36F56"/>
</linearGradient>
<linearGradient id="paint16_linear" x1="206.901" y1="178.421" x2="206.901" y2="308.027" gradientUnits="userSpaceOnUse">
<stop stop-color="#632CF2"/>
<stop offset="1" stop-color="#AE579D"/>
</linearGradient>
<linearGradient id="paint17_linear" x1="500.511" y1="507.176" x2="503.669" y2="499.06" gradientUnits="userSpaceOnUse">
<stop stop-color="#311944"/>
<stop offset="1" stop-color="#893976"/>
</linearGradient>
<linearGradient id="paint18_linear" x1="508.782" y1="471.568" x2="508.703" y2="480.273" gradientUnits="userSpaceOnUse">
<stop stop-color="#311944"/>
<stop offset="1" stop-color="#893976"/>
</linearGradient>
<linearGradient id="paint19_linear" x1="510.028" y1="512.528" x2="509.339" y2="503.851" gradientUnits="userSpaceOnUse">
<stop stop-color="#311944"/>
<stop offset="1" stop-color="#893976"/>
</linearGradient>
<linearGradient id="paint20_linear" x1="522.693" y1="511.504" x2="517.061" y2="504.885" gradientUnits="userSpaceOnUse">
<stop stop-color="#311944"/>
<stop offset="1" stop-color="#893976"/>
</linearGradient>
<linearGradient id="paint21_linear" x1="517.871" y1="472.288" x2="514.912" y2="480.479" gradientUnits="userSpaceOnUse">
<stop stop-color="#311944"/>
<stop offset="1" stop-color="#893976"/>
</linearGradient>
<linearGradient id="paint22_linear" x1="530.754" y1="480.816" x2="522.979" y2="484.716" gradientUnits="userSpaceOnUse">
<stop stop-color="#311944"/>
<stop offset="1" stop-color="#893976"/>
</linearGradient>
<linearGradient id="paint23_linear" x1="504.749" y1="488.613" x2="528.477" y2="498.121" gradientUnits="userSpaceOnUse">
<stop stop-color="#311944"/>
<stop offset="1" stop-color="#893976"/>
</linearGradient>
<linearGradient id="paint24_linear" x1="489.802" y1="478.449" x2="498.158" y2="483.9" gradientUnits="userSpaceOnUse">
<stop stop-color="#FFC444"/>
<stop offset="0.9964" stop-color="#F36F56"/>
</linearGradient>
<linearGradient id="paint25_linear" x1="514.065" y1="494.464" x2="525.543" y2="483.467" gradientUnits="userSpaceOnUse">
<stop stop-color="#FFC444"/>
<stop offset="0.9964" stop-color="#F36F56"/>
</linearGradient>
<linearGradient id="paint26_linear" x1="502.054" y1="495.34" x2="525.781" y2="504.847" gradientUnits="userSpaceOnUse">
<stop stop-color="#FFC444"/>
<stop offset="0.9964" stop-color="#F36F56"/>
</linearGradient>
<linearGradient id="paint27_linear" x1="506.168" y1="478.988" x2="463.841" y2="461.979" gradientUnits="userSpaceOnUse">
<stop stop-color="#FFC444"/>
<stop offset="0.9964" stop-color="#F36F56"/>
</linearGradient>
<linearGradient id="paint28_linear" x1="498.709" y1="497.549" x2="456.382" y2="480.539" gradientUnits="userSpaceOnUse">
<stop stop-color="#FFC444"/>
<stop offset="0.9964" stop-color="#F36F56"/>
</linearGradient>
<clipPath id="clip0">
<rect width="601" height="690" fill="white"/>
</clipPath>
</defs>
</svg>
