<svg width="33" height="29" viewBox="0 0 33 29" fill="none" xmlns="http://www.w3.org/2000/svg">
<path d="M1.19111 14.0804L8.63465 16.8203L11.5363 26.0363C11.6625 26.659 12.4195 26.7835 12.9241 26.4099L17.0874 23.0473C17.4659 22.6737 18.0967 22.6737 18.6014 23.0473L26.0449 28.4026C26.5495 28.7762 27.3065 28.5271 27.4327 27.9044L32.9838 1.7508C33.1099 1.1281 32.4791 0.505396 31.8483 0.754478L1.19111 12.4613C0.434141 12.7104 0.434141 13.8313 1.19111 14.0804ZM11.1579 15.4503L25.7926 6.6079C26.0449 6.48336 26.2972 6.85699 26.0449 6.98153L14.0596 18.0657C13.6811 18.4393 13.3026 18.9375 13.3026 19.5602L12.9241 22.5491C12.9241 22.9228 12.2933 23.0473 12.1672 22.5491L10.6532 17.0693C10.2747 16.4466 10.5271 15.6994 11.1579 15.4503Z" fill="#7A62E6"/>
</svg>
