<svg width="36" height="31" viewBox="0 0 36 31" fill="none" xmlns="http://www.w3.org/2000/svg">
<path d="M0.631262 14.8798L8.90784 17.9263L12.1343 28.1737C12.2746 28.8661 13.1162 29.0046 13.6774 28.5892L18.3066 24.8502C18.7274 24.4348 19.4289 24.4348 19.99 24.8502L28.2665 30.8048C28.8276 31.2202 29.6693 30.9433 29.8096 30.2509L35.9819 1.17035C36.1222 0.477959 35.4208 -0.214428 34.7194 0.0625295L0.631262 13.0795C-0.210421 13.3565 -0.210421 14.6028 0.631262 14.8798ZM11.7134 16.403L27.9859 6.57103C28.2665 6.43255 28.5471 6.84799 28.2665 6.98647L14.9399 19.3111C14.519 19.7265 14.0982 20.2804 14.0982 20.9728L13.6774 24.2963C13.6774 24.7117 12.976 24.8502 12.8357 24.2963L11.1523 18.2032C10.7315 17.5109 11.012 16.68 11.7134 16.403Z" fill="white"/>
</svg>
