<svg width="783" height="772" viewBox="0 0 783 772" fill="none" xmlns="http://www.w3.org/2000/svg">
<g clip-path="url(#clip0)">
<path opacity="0.5" d="M683.694 234.138L122.888 225.658C77.2689 224.968 38.451 265.079 36.7837 315.254C35.1164 365.432 71.2633 405.616 116.926 405.017L678.258 397.667C715.703 397.176 746.907 360.601 748.391 315.969C749.875 271.337 721.104 234.702 683.694 234.138Z" fill="url(#paint0_linear)"/>
<path opacity="0.5" d="M512.403 429.805L208.073 437.139C183.983 437.719 163.557 459.637 162.678 486.09C161.798 512.539 180.81 533.109 204.916 532.041L509.451 518.541C530.32 517.616 547.746 497.178 548.552 472.886C549.362 448.592 533.258 429.304 512.403 429.805Z" fill="url(#paint1_linear)"/>
<path d="M579.835 33.8159L296.784 19.9087C274.855 18.8324 256.293 38.1181 255.468 62.9952C254.639 87.8723 271.871 108.655 293.808 109.413L576.997 119.196C596.821 119.881 613.427 101.437 614.207 78.0029C614.984 54.5716 599.651 34.7896 579.835 33.8159Z" fill="url(#paint2_linear)"/>
<path d="M700.408 81.3988C699.645 104.369 683.6 122.454 664.458 121.793C645.187 121.127 630.097 101.736 630.872 78.4885C631.643 55.2405 647.979 37.166 667.24 38.1127C686.374 39.0514 701.172 58.4287 700.408 81.3988Z" fill="url(#paint3_linear)"/>
<g opacity="0.5">
<path opacity="0.5" d="M693.318 145.09L486.028 138.657C470.153 138.163 456.723 152.785 456.108 171.318C455.492 189.851 467.93 205.126 483.807 205.436L691.176 209.482C705.861 209.768 718.188 195.653 718.776 177.956C719.364 160.259 707.998 145.546 693.318 145.09Z" fill="url(#paint4_linear)"/>
<path opacity="0.5" d="M782.973 179.545C782.31 196.948 770.258 210.774 755.983 210.426C741.636 210.075 730.49 195.551 731.159 177.986C731.829 160.421 744.05 146.597 758.392 147.113C772.662 147.622 783.634 162.142 782.973 179.545Z" fill="url(#paint5_linear)"/>
</g>
<path d="M605.481 589.421V260.912C605.481 254.177 599.891 253.403 593.087 253.128L28.6035 225.481C20.0133 225.135 12.9636 231.069 12.9636 238.67V601.723L605.481 589.421Z" fill="#97A6B7"/>
<path d="M12.9636 601.723V674.229C12.9636 681.829 20.0133 687.747 28.6035 687.386L590.567 658.684C597.371 658.395 605.481 657.492 605.481 650.754V587.314L12.9636 601.723Z" fill="#97A6B7"/>
<path d="M405.748 736.237C395.574 732.862 387.971 724.231 385.826 713.622L371.02 640.359L244.363 644.855L228.774 721.18C226.592 731.87 235.33 742.594 245.393 746.529L298.384 767.258C308.239 771.113 318.834 772.65 329.364 771.749L441.353 762.171C444.625 761.89 447.253 759.317 447.633 756.018C448.014 752.717 450.307 749.011 447.185 747.978L405.748 736.237Z" fill="#97A6B7"/>
<path d="M407 731.781C396.837 728.449 389.242 719.926 387.1 709.45L372.307 637.108L248.736 641.554L233.164 716.919C230.984 727.473 236.752 738.057 246.807 741.944L299.743 762.411C309.588 766.217 320.172 767.736 330.691 766.845L442.567 757.389C445.836 757.114 448.462 754.573 448.842 751.312C449.222 748.053 447.256 744.976 444.137 743.953L407 731.781Z" fill="url(#paint6_linear)"/>
<path d="M609.604 260.909V589.426L260.094 596.673L16.4385 601.725V238.665C16.4385 231.072 23.6366 225.132 32.2295 225.477L79.9182 227.393L597.031 248.172C603.844 248.442 609.604 254.177 609.604 260.909Z" fill="url(#paint7_linear)"/>
<path d="M34.2046 289.193V572.789C34.2046 579.867 40.7498 585.474 48.7276 585.245L584.491 570.011C590.886 569.83 596.103 564.516 596.103 558.202V305.266L34.2046 289.193Z" fill="url(#paint8_linear)"/>
<path d="M596.103 305.271V276.243C596.103 270.058 590.991 264.809 584.729 264.575L48.4308 244.571C40.6176 244.28 34.2046 249.715 34.2046 256.647V289.193L596.103 305.271Z" fill="#BFC8D6"/>
<path d="M73.4082 267.115C73.4082 269.551 71.1878 271.458 68.4413 271.372C65.6921 271.285 63.4609 269.233 63.4609 266.789C63.4609 264.345 65.6921 262.441 68.4413 262.533C71.1851 262.627 73.4082 264.677 73.4082 267.115Z" fill="white"/>
<path d="M94.811 267.817C94.811 270.239 92.6149 272.135 89.9035 272.049C87.1866 271.962 84.9824 269.923 84.9824 267.496C84.9824 265.065 87.1866 263.172 89.9035 263.264C92.6149 263.355 94.811 265.395 94.811 267.817Z" fill="white"/>
<path d="M115.965 268.513C115.965 270.921 113.796 272.804 111.115 272.72C108.43 272.634 106.25 270.608 106.25 268.194C106.25 265.78 108.43 263.895 111.115 263.987C113.796 264.076 115.965 266.104 115.965 268.513Z" fill="white"/>
<path d="M609.604 587.314V650.754C609.604 657.487 603.881 663.232 597.072 663.52L576.519 664.389L32.2727 687.381C23.6797 687.745 16.4385 681.824 16.4385 674.223V601.725L259.366 595.824L609.604 587.314Z" fill="url(#paint9_linear)"/>
<path opacity="0.1" d="M576.433 664.389L32.2295 687.381C23.6366 687.745 16.4385 681.824 16.4385 674.223V238.665C16.4385 231.072 23.6366 225.132 32.2295 225.477L79.9182 227.393C87.2323 232.296 93.7829 238.346 99.0115 245.537C99.2462 245.856 99.489 246.171 99.7048 246.489C103.768 252.262 106.666 258.285 108.692 264.486C109.587 267.194 110.313 269.929 110.901 272.704C112.218 278.841 112.865 285.107 113.135 291.456C113.715 304.875 112.66 318.65 112.717 332.22C112.83 359.724 114.549 387.207 132.8 409.349C146.317 425.749 168.335 431.977 186.605 441.512C207.932 452.643 226.643 467.408 237.478 489.337C250.778 516.251 238.29 545.484 246.791 573.285C247.444 575.432 248.221 577.525 249.108 579.551C251.677 585.463 255.171 590.88 259.347 595.818C259.582 596.107 259.822 596.388 260.075 596.668C276.339 615.355 302.374 627.029 324.939 632.68C371.252 644.259 419.286 624.191 465.262 622.613C498.384 621.483 544.195 628.955 568.557 653.861C571.501 656.872 574.145 660.448 576.433 664.389Z" fill="white"/>
<path d="M70.1935 13.0564C49.0498 8.52223 22.8879 23.2575 10.5583 41.4696C-11.8588 74.5843 2.89889 131.832 40.9236 146.033C65.4532 155.196 97.2942 145.555 111.243 126.48C123.931 109.129 114.693 93.7108 130.503 77.9991C143.747 64.8363 154.892 69.7993 165.978 55.4659C174.142 44.9141 180.094 26.4889 171.814 13.6174C164.834 2.7743 149.845 -0.867049 138.778 0.166014C118.662 2.04333 114.208 19.0983 94.1403 19.5784C83.1678 19.8428 81.425 15.4651 70.1935 13.0564Z" fill="url(#paint10_linear)"/>
<path d="M158.096 50.175C164.256 45.5033 183.656 57.339 195.91 71.8261C210.307 88.8461 207.946 101.375 219.989 121.99C225.976 132.24 236.56 146.266 256.366 159.504C254.555 163.059 252.748 166.617 250.938 170.172C240.809 169.867 221.063 167.72 203.705 153.994C191.648 144.459 186.058 132.766 175.371 109.766C164.647 86.6882 150.396 56.0173 158.096 50.175Z" fill="url(#paint11_linear)"/>
<path d="M287.338 366.84L280.555 352.431C279.592 350.384 278.09 348.639 276.209 347.379L272.85 345.132C272.85 345.132 264.821 344.919 263.572 349.966C263.302 356.372 275.756 370.689 283.634 376.372C284.942 377.316 286.807 378.573 287.94 377.926C289.855 376.831 288.509 370.937 287.338 366.84Z" fill="url(#paint12_linear)"/>
<path d="M274.59 337.299C273.522 343.479 274.874 346.702 276.33 348.506C277.356 349.777 285.673 363.49 282.258 365.704C280.715 366.702 270.147 353.583 269.124 351.573C268.196 349.752 267.592 350.181 267.538 345.224C267.503 341.957 266.839 339.33 266.316 337.685C269.073 337.555 271.833 337.429 274.59 337.299Z" fill="url(#paint13_linear)"/>
<path d="M286.602 288.322C286.602 288.322 294.11 297.277 292.888 307.095C291.666 316.913 278.519 302.558 276.687 297.708C274.852 292.859 272.713 285.945 272.713 285.945C272.713 285.945 281.931 280.214 286.602 288.322Z" fill="url(#paint14_linear)"/>
<path d="M283.739 274.309C283.739 274.309 281.702 284.742 285.587 290.25C287.522 292.993 290.131 295.318 289.364 297.552C288.849 299.049 286.898 300.122 285.242 299.952C282.074 299.626 280.318 294.773 279.08 291.351C277.251 286.293 276.231 275.474 276.231 275.474L283.739 274.309Z" fill="url(#paint15_linear)"/>
<path d="M277.755 283.105C280.064 282.264 282.374 281.425 284.681 280.583C288.282 272.359 292.677 258.849 291.21 242.43C287.432 200.204 248.369 177.827 244.028 175.432C233.385 180.77 222.604 188.304 222.213 197.798C221.721 209.717 237.963 216.018 253.231 233.445C262.398 243.906 272.192 259.496 277.755 283.105Z" fill="url(#paint16_linear)"/>
<path d="M275.267 342.13C282.897 312.338 280.947 288.025 278.748 274.021C275.421 252.852 268.658 209.796 239.903 193.739C233.625 190.232 224.646 187.092 213.706 177.344C204.571 169.204 198.762 160.643 195.258 154.612C156.801 143.334 121.331 147.903 105.681 168.524C103.873 170.906 99.3433 176.074 98.4692 183.694C96.4916 200.886 113.391 221.585 132.353 225.909C156.45 231.404 170.431 206.664 191.78 214.896C197.753 217.2 202.814 222.904 212.943 234.314C225.825 248.831 233.066 262.223 235.808 267.582C243.966 283.542 250.152 295.324 251.054 310.593C251.264 314.151 251.388 321.337 255.556 329.086C258.756 335.036 263.092 339.001 266.316 341.453C269.3 341.68 272.284 341.903 275.267 342.13Z" fill="url(#paint17_linear)"/>
<path opacity="0.3" d="M98.4666 183.694C99.3434 176.074 103.871 170.906 105.678 168.524C121.329 147.906 156.801 143.334 195.255 154.611C198.76 160.643 204.566 169.204 213.701 177.344C224.641 187.092 233.617 190.232 239.898 193.738C257.456 203.543 266.807 223.414 272.192 242.222C264.203 229.839 257.367 226.548 252.074 226.489C244.498 226.405 241.115 232.879 232.071 231.997C222.404 231.053 220.195 223.061 212.357 222.144C210.013 221.868 207.126 222.23 203.659 224.075C199.035 219.233 195.587 216.366 191.775 214.899C170.423 206.669 156.445 231.406 132.347 225.912C113.389 221.588 96.4917 200.889 98.4666 183.694Z" fill="url(#paint18_linear)"/>
<path d="M255.343 207.063C250.992 206.831 244.287 206.699 236.201 207.497C197.831 211.29 187.253 230.262 155.541 234.894C148.038 235.989 114.638 240.866 100.172 221.561C89.7845 207.702 91.3574 183.821 102.718 174.429C107.526 170.453 112.285 170.563 143.077 170.841C154.673 170.946 166.268 170.984 177.864 171.132C226.948 171.758 236.336 168.36 245.267 176.476C249.432 180.263 255.524 188.395 255.343 207.063Z" fill="url(#paint19_linear)"/>
<path d="M151.721 49.614C151.721 49.614 112.976 38.3178 95.9143 57.6304C92.782 61.1746 90.3052 65.8382 88.503 74.8364C79.3193 120.698 114.058 148.243 100.371 172.438C94.9349 182.046 85.3626 184.94 78.5611 202.208C77.4091 205.132 73.2435 215.705 77.0665 219.036C80.4335 221.971 85.9697 215.775 95.8036 216.973C106.218 218.241 108.651 226.238 115.658 225.073C120.225 224.312 122.195 220.415 128.926 210.691C138.668 196.616 143.541 189.579 147.035 187.111C160.813 177.377 171.465 190.073 187.177 180.433C192.867 176.942 213.944 149.81 207.744 157.263C192.983 138.854 189.554 123.665 189.201 113.106C188.815 101.529 192.152 96.2664 189.201 82.5803C189.201 82.5803 185.907 67.3109 174.028 54.1967C172.317 52.3167 170.286 50.3585 151.721 49.614Z" fill="url(#paint20_linear)"/>
<path d="M139.281 24.4912C139.804 26.943 142.478 40.0923 137.096 43.4774C135.93 44.2111 133.688 44.6319 129.204 45.4707C126.269 46.021 123.806 46.3582 122.068 46.5658C129.924 57.1824 142.114 62.666 153.459 60.4758C161.442 58.9356 166.684 54.0427 168.999 51.545C166.684 49.7514 163.271 47.5288 158.763 45.8915C155.811 44.818 153.111 44.257 150.887 43.9603C150.491 41.4194 150.094 38.8786 149.7 36.3377C146.225 32.3889 142.753 28.44 139.281 24.4912Z" fill="url(#paint21_linear)"/>
<path d="M139.027 31.0457C139.027 31.0457 140.001 40.6831 149.371 42.3824C157.762 43.9037 164.078 23.6336 159.783 18.39C158.35 16.6422 154.816 14.9779 151.748 15.0643C149.593 15.1263 142.311 17.8991 141.294 25.1845C139.842 23.6578 138.037 23.2182 137.144 23.8574C136.014 24.6693 136.618 27.0267 136.756 27.5635C137.236 29.4138 138.447 30.5602 139.027 31.0457Z" fill="url(#paint22_linear)"/>
<path opacity="0.3" d="M207.738 157.263C205.963 155.048 204.358 152.882 202.895 150.762C194.756 148.035 187.712 147.021 182.032 146.746C169.217 146.126 162.203 149.138 153.477 143.892C143.576 137.937 145.33 129.667 135.774 125.052C125.718 120.194 118.607 125.683 108.932 123.911C103.091 122.84 95.9736 118.934 88.7108 107.538C94.2712 134.972 110.445 154.619 100.366 172.44C94.9295 182.048 85.3573 184.942 78.5558 202.21C77.4037 205.134 73.2381 215.708 77.0611 219.039C80.4281 221.973 85.9643 215.778 95.7983 216.975C106.212 218.243 108.646 226.241 115.652 225.075C120.22 224.315 122.189 220.417 128.921 210.693C138.663 196.619 143.536 189.582 147.029 187.114C160.808 177.379 171.459 190.075 187.172 180.435C192.862 176.942 213.938 149.81 207.738 157.263Z" fill="url(#paint23_linear)"/>
<path d="M219.412 161.97L131.748 166.234C130.542 166.293 129.441 166.938 128.802 167.963L126.377 171.855C125.171 173.792 126.619 176.292 128.902 176.206L221.759 172.67L219.412 161.97Z" fill="url(#paint24_linear)"/>
<path d="M310.591 113.165L220.025 114.921C217.345 114.972 214.89 116.432 213.566 118.762L182.205 173.927L277.855 170.118C280.48 170.013 282.876 168.592 284.225 166.34L313.281 117.807C314.517 115.738 312.998 113.119 310.591 113.165Z" fill="url(#paint25_linear)"/>
<path opacity="0.3" d="M213.566 118.762C214.89 116.432 217.343 114.972 220.024 114.921L222.01 114.883C222.307 117.807 223.203 120.48 224.991 122.638C230.576 129.376 239.854 125.219 246.769 132.351C254.366 140.187 247.349 149.511 254.14 156.805C261.289 164.478 272.85 158.231 286.137 163.141L284.225 166.337C282.876 168.592 280.48 170.013 277.855 170.116L182.205 173.924L213.566 118.762Z" fill="url(#paint26_linear)"/>
<path d="M138.892 159.043C140.034 156.03 141.175 153.018 142.316 150.005C129.706 146.547 112.264 141.441 94.3738 135.051C91.5706 134.05 88.2441 132.809 87.1541 129.861C84.0946 121.594 103.541 113.025 111.101 94.9718C118.094 78.2755 118.504 53.2743 110.389 50.5366C93.505 44.8399 29.3697 121.184 50.7535 152.594C62.843 170.353 100.112 173.18 138.892 159.043Z" fill="url(#paint27_linear)"/>
<path d="M142.316 150.004C150.232 145.799 159.71 150.11 160.319 150.398C162.059 151.218 164.59 152.683 167.148 155.294C167.436 155.688 170.871 160.446 169.619 161.97C168.615 163.191 164.733 162.177 160.066 159.275C158.11 159 155.196 158.749 151.708 159.07C145.3 159.661 142.365 161.684 140.039 159.939C138.337 158.66 137.757 155.955 138.369 153.945C139.027 151.787 140.975 150.716 142.316 150.004Z" fill="url(#paint28_linear)"/>
</g>
<defs>
<linearGradient id="paint0_linear" x1="184.615" y1="120.017" x2="918.778" y2="813.503" gradientUnits="userSpaceOnUse">
<stop stop-color="#FF9085"/>
<stop offset="1" stop-color="#FB6FBB"/>
</linearGradient>
<linearGradient id="paint1_linear" x1="246.34" y1="376.587" x2="632.436" y2="741.292" gradientUnits="userSpaceOnUse">
<stop offset="0.00359712" stop-color="#E38DDD"/>
<stop offset="1" stop-color="#9571F6"/>
</linearGradient>
<linearGradient id="paint2_linear" x1="378.786" y1="45.5271" x2="727.282" y2="203.963" gradientUnits="userSpaceOnUse">
<stop stop-color="#FF9085"/>
<stop offset="1" stop-color="#FB6FBB"/>
</linearGradient>
<linearGradient id="paint3_linear" x1="423.456" y1="-30.1068" x2="754.377" y2="120.338" gradientUnits="userSpaceOnUse">
<stop stop-color="#FF9085"/>
<stop offset="1" stop-color="#FB6FBB"/>
</linearGradient>
<linearGradient id="paint4_linear" x1="546.679" y1="156.399" x2="800.313" y2="271.708" gradientUnits="userSpaceOnUse">
<stop offset="0.00359712" stop-color="#E38DDD"/>
<stop offset="1" stop-color="#9571F6"/>
</linearGradient>
<linearGradient id="paint5_linear" x1="577.492" y1="96.1214" x2="822.863" y2="209.098" gradientUnits="userSpaceOnUse">
<stop offset="0.00359712" stop-color="#E38DDD"/>
<stop offset="1" stop-color="#9571F6"/>
</linearGradient>
<linearGradient id="paint6_linear" x1="338.944" y1="666.419" x2="340.868" y2="738.6" gradientUnits="userSpaceOnUse">
<stop stop-color="#444B8C"/>
<stop offset="0.9964" stop-color="#26264F"/>
</linearGradient>
<linearGradient id="paint7_linear" x1="222.64" y1="383.44" x2="604.972" y2="569.509" gradientUnits="userSpaceOnUse">
<stop stop-color="#444B8C"/>
<stop offset="0.6447" stop-color="#313365"/>
<stop offset="0.9964" stop-color="#26264F"/>
</linearGradient>
<linearGradient id="paint8_linear" x1="34.2041" y1="437.224" x2="596.104" y2="437.224" gradientUnits="userSpaceOnUse">
<stop stop-color="white"/>
<stop offset="0.9964" stop-color="#EBEFF2"/>
</linearGradient>
<linearGradient id="paint9_linear" x1="140.968" y1="550.951" x2="523.364" y2="737.052" gradientUnits="userSpaceOnUse">
<stop stop-color="#444B8C"/>
<stop offset="0.9964" stop-color="#26264F"/>
</linearGradient>
<linearGradient id="paint10_linear" x1="8.1725" y1="80.2418" x2="171.85" y2="70.7006" gradientUnits="userSpaceOnUse">
<stop stop-color="#444B8C"/>
<stop offset="0.9964" stop-color="#26264F"/>
</linearGradient>
<linearGradient id="paint11_linear" x1="170.437" y1="-7.46064" x2="216.424" y2="144.234" gradientUnits="userSpaceOnUse">
<stop stop-color="#FFC444"/>
<stop offset="0.0564" stop-color="#FDB647"/>
<stop offset="0.1813" stop-color="#F99C4C"/>
<stop offset="0.3198" stop-color="#F78851"/>
<stop offset="0.4772" stop-color="#F57A54"/>
<stop offset="0.6695" stop-color="#F37155"/>
<stop offset="0.9964" stop-color="#F36F56"/>
</linearGradient>
<linearGradient id="paint12_linear" x1="288.406" y1="252.476" x2="277.399" y2="352.297" gradientUnits="userSpaceOnUse">
<stop stop-color="#444B8C"/>
<stop offset="0.9964" stop-color="#26264F"/>
</linearGradient>
<linearGradient id="paint13_linear" x1="318.002" y1="277.912" x2="269.198" y2="360.495" gradientUnits="userSpaceOnUse">
<stop stop-color="#311944"/>
<stop offset="1" stop-color="#A03976"/>
</linearGradient>
<linearGradient id="paint14_linear" x1="287.669" y1="252.395" x2="276.662" y2="352.216" gradientUnits="userSpaceOnUse">
<stop stop-color="#444B8C"/>
<stop offset="0.9964" stop-color="#26264F"/>
</linearGradient>
<linearGradient id="paint15_linear" x1="283.37" y1="287.967" x2="299.148" y2="329.072" gradientUnits="userSpaceOnUse">
<stop stop-color="#311944"/>
<stop offset="1" stop-color="#A03976"/>
</linearGradient>
<linearGradient id="paint16_linear" x1="3854.45" y1="3895.85" x2="3724.68" y2="3763.28" gradientUnits="userSpaceOnUse">
<stop stop-color="#311944"/>
<stop offset="1" stop-color="#A03976"/>
</linearGradient>
<linearGradient id="paint17_linear" x1="228.993" y1="354.837" x2="193.834" y2="243.539" gradientUnits="userSpaceOnUse">
<stop stop-color="#311944"/>
<stop offset="1" stop-color="#A03976"/>
</linearGradient>
<linearGradient id="paint18_linear" x1="228.99" y1="354.838" x2="193.831" y2="243.54" gradientUnits="userSpaceOnUse">
<stop stop-color="#AA80F9"/>
<stop offset="0.9964" stop-color="#6165D7"/>
</linearGradient>
<linearGradient id="paint19_linear" x1="3823.04" y1="3926.6" x2="3693.27" y2="3794.03" gradientUnits="userSpaceOnUse">
<stop stop-color="#311944"/>
<stop offset="1" stop-color="#A03976"/>
</linearGradient>
<linearGradient id="paint20_linear" x1="87.1979" y1="189.289" x2="208.441" y2="35.8614" gradientUnits="userSpaceOnUse">
<stop stop-color="#FFC444"/>
<stop offset="0.9964" stop-color="#F36F56"/>
</linearGradient>
<linearGradient id="paint21_linear" x1="137.595" y1="6.95846" x2="150.108" y2="73.3473" gradientUnits="userSpaceOnUse">
<stop stop-color="#311944"/>
<stop offset="1" stop-color="#A03976"/>
</linearGradient>
<linearGradient id="paint22_linear" x1="114.12" y1="-32.0016" x2="160.043" y2="43.3302" gradientUnits="userSpaceOnUse">
<stop stop-color="#311944"/>
<stop offset="1" stop-color="#A03976"/>
</linearGradient>
<linearGradient id="paint23_linear" x1="208.868" y1="166.363" x2="75.4837" y2="166.363" gradientUnits="userSpaceOnUse">
<stop stop-color="#FFC444"/>
<stop offset="0.9964" stop-color="#F36F56"/>
</linearGradient>
<linearGradient id="paint24_linear" x1="221.76" y1="169.09" x2="125.941" y2="169.09" gradientUnits="userSpaceOnUse">
<stop stop-color="#40447E"/>
<stop offset="0.9964" stop-color="#3C3B6B"/>
</linearGradient>
<linearGradient id="paint25_linear" x1="283.035" y1="108.662" x2="220.229" y2="170.981" gradientUnits="userSpaceOnUse">
<stop stop-color="#40447E"/>
<stop offset="0.9964" stop-color="#3C3B6B"/>
</linearGradient>
<linearGradient id="paint26_linear" x1="283.035" y1="108.662" x2="220.229" y2="170.981" gradientUnits="userSpaceOnUse">
<stop stop-color="#40447E"/>
<stop offset="0.9964" stop-color="#3C3B6B"/>
</linearGradient>
<linearGradient id="paint27_linear" x1="64.323" y1="171.438" x2="189.818" y2="12.6296" gradientUnits="userSpaceOnUse">
<stop stop-color="#FFC444"/>
<stop offset="0.9964" stop-color="#F36F56"/>
</linearGradient>
<linearGradient id="paint28_linear" x1="161.754" y1="150.201" x2="129.909" y2="180.217" gradientUnits="userSpaceOnUse">
<stop stop-color="#311944"/>
<stop offset="1" stop-color="#A03976"/>
</linearGradient>
<clipPath id="clip0">
<rect width="783" height="772" fill="white"/>
</clipPath>
</defs>
</svg>
