<svg width="52" height="52" viewBox="0 0 52 52" fill="none" xmlns="http://www.w3.org/2000/svg">
<path fill-rule="evenodd" clip-rule="evenodd" d="M24.375 4.875C22.9298 4.875 21.6329 5.50438 20.7416 6.5H19.5C17.7051 6.5 16.25 7.95507 16.25 9.75H13C10.3076 9.75 8.125 11.9326 8.125 14.625V40.625C8.125 43.3174 10.3076 45.5 13 45.5H35.75C38.4424 45.5 40.625 43.3174 40.625 40.625V14.625C40.625 11.9326 38.4424 9.75 35.75 9.75H32.5C32.5 7.95507 31.0449 6.5 29.25 6.5H28.0084C27.1171 5.50438 25.8202 4.875 24.375 4.875ZM22.9664 8.93868C23.2498 8.44873 23.7756 8.125 24.375 8.125C24.9744 8.125 25.5002 8.44873 25.7836 8.93868L26.2529 9.75H29.25V13H19.5V9.75H22.4971L22.9664 8.93868ZM32.5 13C32.5 14.7949 31.0449 16.25 29.25 16.25H19.5C17.7051 16.25 16.25 14.7949 16.25 13H13C12.1025 13 11.375 13.7275 11.375 14.625V40.625C11.375 41.5225 12.1025 42.25 13 42.25H35.75C36.6475 42.25 37.375 41.5225 37.375 40.625V14.625C37.375 13.7275 36.6475 13 35.75 13H32.5Z" fill="#F2F2F2"/>
<path d="M32.5 21.125H22.75" stroke="#F2F2F2" stroke-width="2" stroke-linecap="round"/>
<path d="M29.25 29.25H22.75" stroke="#F2F2F2" stroke-width="2" stroke-linecap="round"/>
<path d="M32.5 37.375H22.75" stroke="#F2F2F2" stroke-width="2" stroke-linecap="round"/>
<circle cx="16.25" cy="21.125" r="1.625" fill="#F2F2F2"/>
<circle cx="16.25" cy="29.25" r="1.625" fill="#F2F2F2"/>
<circle cx="16.25" cy="37.375" r="1.625" fill="#F2F2F2"/>
</svg>
