<svg width="35" height="38" viewBox="0 0 35 38" fill="none" xmlns="http://www.w3.org/2000/svg">
<path d="M27.0899 0.901944C20.7374 -0.300648 14.1405 -0.300648 7.78796 0.901944C4.97818 1.50324 1.43543 4.8705 0.824607 7.5162C-0.274869 12.6874 -0.274869 17.9788 0.824607 23.1499C1.55759 25.7956 5.10035 29.1629 7.78796 29.7642C7.91012 29.7642 8.03228 29.8844 8.03228 30.0047V37.581C8.03228 37.9418 8.52094 38.1823 8.76527 37.8215L12.4302 34.0935C12.4302 34.0935 15.3621 31.087 15.8508 30.606C15.8508 30.606 15.973 30.4857 16.0951 30.4857C19.76 30.606 23.5471 30.2452 27.212 29.6439C30.0218 29.0426 33.5646 25.6754 34.1754 23.0296C35.2749 17.8585 35.2749 12.5671 34.1754 7.39594C33.4424 4.8705 29.8997 1.50324 27.0899 0.901944ZM27.212 23.5107C26.6012 24.7133 25.8682 25.6754 24.6466 26.2766C24.2801 26.3969 23.9136 26.5172 23.5471 26.6374C23.0585 26.5172 22.692 26.3969 22.3255 26.2766C18.4162 24.7133 14.7513 22.5486 11.8194 19.4219C10.2312 17.618 8.88743 15.5736 7.78796 13.4089C7.2993 12.3266 6.81065 11.3645 6.44415 10.2822C6.07766 9.32009 6.68848 8.35802 7.2993 7.63646C7.91012 6.91491 8.64311 6.43387 9.49825 6.07309C10.1091 5.71231 10.7199 5.95283 11.2086 6.43387C12.1859 7.63646 13.1632 8.83905 13.8962 10.1619C14.3848 11.0037 14.2626 11.9658 13.4075 12.5671C13.1632 12.6873 13.041 12.8076 12.7967 13.0481C12.6745 13.1684 12.4302 13.2886 12.308 13.5292C12.0637 13.8899 12.0637 14.2507 12.1859 14.6115C13.1632 17.3775 14.9956 19.5421 17.8054 20.7447C18.2941 20.9852 18.6606 21.1055 19.2714 21.1055C20.1265 20.9852 20.493 20.0232 21.1038 19.5421C21.7147 19.0611 22.4476 19.0611 23.1806 19.4219C23.7914 19.7826 24.4023 20.2637 25.1353 20.7447C25.7461 21.2258 26.3569 21.5865 26.9677 22.0676C27.3342 22.3081 27.4564 22.9094 27.212 23.5107ZM22.0811 14.4912C21.8368 14.4912 21.959 14.4912 22.0811 14.4912C21.5925 14.4912 21.4703 14.2507 21.3482 13.8899C21.3482 13.6494 21.3482 13.2886 21.226 13.0481C21.1038 12.5671 20.8595 12.0861 20.3709 11.7253C20.1265 11.605 19.8822 11.4848 19.6379 11.3645C19.2714 11.2442 19.0271 11.2442 18.6606 11.2442C18.2941 11.124 18.1719 10.8835 18.1719 10.5227C18.1719 10.2822 18.5384 10.0416 18.7827 10.0416C20.7373 10.1619 22.2033 11.2442 22.4476 13.5292C22.4476 13.6494 22.4476 13.8899 22.4476 14.0102C22.4476 14.2507 22.3255 14.4912 22.0811 14.4912ZM20.8595 9.19983C20.2487 8.95931 19.6379 8.71879 18.9049 8.59854C18.6606 8.59854 18.2941 8.47828 18.0497 8.47828C17.6832 8.47828 17.4389 8.23776 17.5611 7.87698C17.5611 7.5162 17.8054 7.27568 18.1719 7.39594C19.3935 7.5162 20.493 7.75672 21.5925 8.23776C23.7915 9.32009 25.0131 11.124 25.3796 13.5292C25.3796 13.6494 25.3796 13.7697 25.3796 13.8899C25.3796 14.1305 25.3796 14.371 25.3796 14.7318C25.3796 14.852 25.3796 14.9723 25.3796 15.0925C25.2574 15.5736 24.4023 15.6938 24.2801 15.0925C24.2801 14.9723 24.1579 14.7318 24.1579 14.6115C24.1579 13.5292 23.9136 12.4468 23.425 11.4848C22.692 10.4024 21.8368 9.68087 20.8595 9.19983ZM27.4564 16.4154C27.0899 16.4154 26.8455 16.0546 26.8455 15.6938C26.8455 14.9723 26.7234 14.2507 26.6012 13.5292C26.1126 9.68087 22.9363 6.55413 19.1492 5.95283C18.5384 5.83257 17.9276 5.83257 17.4389 5.71231C17.0724 5.71231 16.5838 5.71231 16.4616 5.23128C16.3394 4.8705 16.7059 4.50972 17.0724 4.50972C17.1946 4.50972 17.3168 4.50972 17.3168 4.50972C22.3255 4.62998 17.5611 4.50972 17.3168 4.50972C22.4476 4.62998 26.7234 7.99724 27.5785 13.0481C27.7007 13.8899 27.8229 14.7318 27.8229 15.6938C28.0672 16.0546 27.8229 16.4154 27.4564 16.4154Z" fill="white"/>
</svg>
