<svg width="32" height="36" viewBox="0 0 32 36" fill="none" xmlns="http://www.w3.org/2000/svg">
<path d="M24.3633 1.71058C18.6502 0.629026 12.7173 0.629026 7.0041 1.71058C4.47713 2.25135 1.29095 5.2797 0.741611 7.65912C-0.247204 12.3098 -0.247204 17.0686 0.741611 21.7193C1.40082 24.0987 4.587 27.1271 7.0041 27.6678C7.11397 27.6678 7.22384 27.776 7.22384 27.8841V34.6979C7.22384 35.0224 7.66332 35.2387 7.88305 34.9142L11.1791 31.5614C11.1791 31.5614 13.8159 28.8575 14.2554 28.4249C14.2554 28.4249 14.3653 28.3168 14.4752 28.3168C17.7712 28.4249 21.1771 28.1005 24.4732 27.5597C27.0001 27.0189 30.1863 23.9906 30.7357 21.6111C31.7245 16.9605 31.7245 12.2016 30.7357 7.55096C30.0765 5.2797 26.8903 2.25135 24.3633 1.71058ZM24.4732 22.0438C23.9238 23.1253 23.2646 23.9906 22.1659 24.5313C21.8363 24.6395 21.5067 24.7476 21.1771 24.8558C20.7376 24.7476 20.408 24.6395 20.0784 24.5313C16.5626 23.1253 13.2666 21.1785 10.6298 18.3665C9.20147 16.7442 7.99292 14.9055 7.0041 12.9587C6.56463 11.9853 6.12516 11.1201 5.79555 10.1467C5.46595 9.28144 6.01529 8.4162 6.56463 7.76727C7.11397 7.11834 7.77318 6.68572 8.54226 6.36125C9.0916 6.03679 9.64095 6.2531 10.0804 6.68572C10.9594 7.76727 11.8383 8.84882 12.4975 10.0385C12.937 10.7956 12.8271 11.6609 12.058 12.2016C11.8383 12.3098 11.7284 12.4179 11.5087 12.6343C11.3988 12.7424 11.1791 12.8506 11.0692 13.0669C10.8495 13.3913 10.8495 13.7158 10.9594 14.0403C11.8383 16.5278 13.4863 18.4746 16.0133 19.5562C16.4528 19.7725 16.7824 19.8807 17.3317 19.8807C18.1008 19.7725 18.4304 18.9073 18.9798 18.4746C19.5291 18.042 20.1883 18.042 20.8475 18.3665C21.3969 18.691 21.9462 19.1236 22.6054 19.5562C23.1547 19.9888 23.7041 20.3133 24.2534 20.7459C24.583 20.9622 24.6929 21.503 24.4732 22.0438ZM19.8587 13.9321C19.639 13.9321 19.7488 13.9321 19.8587 13.9321C19.4192 13.9321 19.3094 13.7158 19.1995 13.3913C19.1995 13.175 19.1995 12.8506 19.0896 12.6343C18.9798 12.2016 18.76 11.769 18.3205 11.4445C18.1008 11.3364 17.8811 11.2282 17.6613 11.1201C17.3317 11.0119 17.112 11.0119 16.7824 11.0119C16.4528 10.9038 16.3429 10.6875 16.3429 10.363C16.3429 10.1467 16.6725 9.93038 16.8923 9.93038C18.6501 10.0385 19.9686 11.0119 20.1883 13.0669C20.1883 13.175 20.1883 13.3913 20.1883 13.4995C20.1883 13.7158 20.0784 13.9321 19.8587 13.9321ZM18.76 9.17329C18.2107 8.95698 17.6613 8.74067 17.0021 8.63251C16.7824 8.63251 16.4528 8.52436 16.233 8.52436C15.9034 8.52436 15.6837 8.30805 15.7936 7.98358C15.7936 7.65912 16.0133 7.44281 16.3429 7.55096C17.4416 7.65912 18.4304 7.87543 19.4192 8.30805C21.3969 9.28145 22.4955 10.9038 22.8251 13.0669C22.8251 13.175 22.8251 13.2832 22.8251 13.3913C22.8251 13.6077 22.8251 13.824 22.8251 14.1484C22.8251 14.2566 22.8251 14.3647 22.8251 14.4729C22.7153 14.9055 21.9462 15.0137 21.8363 14.4729C21.8363 14.3647 21.7265 14.1484 21.7265 14.0403C21.7265 13.0669 21.5067 12.0935 21.0673 11.2282C20.408 10.2548 19.639 9.60591 18.76 9.17329ZM24.6929 15.6626C24.3633 15.6626 24.1436 15.3381 24.1436 15.0137C24.1436 14.3647 24.0337 13.7158 23.9238 13.0669C23.4844 9.60591 20.6278 6.79387 17.2219 6.2531C16.6725 6.14494 16.1232 6.14494 15.6837 6.03679C15.3541 6.03679 14.9146 6.03679 14.8048 5.60417C14.6949 5.2797 15.0245 4.95524 15.3541 4.95524C15.464 4.95524 15.5738 4.95524 15.5738 4.95524C20.0784 5.06339 15.7936 4.95524 15.5738 4.95524C20.1883 5.06339 24.0337 8.09174 24.8028 12.6343C24.9126 13.3913 25.0225 14.1484 25.0225 15.0137C25.2422 15.3381 25.0225 15.6626 24.6929 15.6626Z" fill="#7A62E6"/>
</svg>
