<svg width="31" height="30" viewBox="0 0 31 30" fill="none" xmlns="http://www.w3.org/2000/svg">
<path d="M25.9035 4.32812C23.1115 1.54576 19.3887 0 15.4592 0C7.2898 0 0.671584 6.59524 0.671584 14.7362C0.671584 17.3125 1.39545 19.8888 2.63637 22.0528L0.568176 29.6786L8.42731 27.6176C10.5989 28.7511 12.9773 29.3694 15.4592 29.3694C23.6285 29.3694 30.2467 22.7742 30.2467 14.6332C30.1433 10.8203 28.6956 7.11049 25.9035 4.32812ZM22.5944 19.9918C22.2842 20.8162 20.8365 21.6406 20.1126 21.7437C19.4921 21.8467 18.6649 21.8467 17.8376 21.6406C17.3205 21.4345 16.5967 21.2284 15.7694 20.8162C12.0466 19.2705 9.66823 15.5606 9.46141 15.2515C9.25459 15.0454 7.91026 13.2935 7.91026 11.4386C7.91026 9.5837 8.84095 8.7593 9.15118 8.3471C9.46141 7.93489 9.87504 7.9349 10.1853 7.9349C10.3921 7.9349 10.7023 7.9349 10.9091 7.9349C11.116 7.9349 11.4262 7.83184 11.7364 8.5532C12.0466 9.27455 12.7705 11.1295 12.8739 11.2325C12.9773 11.4386 12.9773 11.6447 12.8739 11.8508C12.7705 12.0569 12.6671 12.263 12.4603 12.4691C12.2535 12.6752 12.0466 12.9844 11.9432 13.0874C11.7364 13.2935 11.5296 13.4996 11.7364 13.8088C11.9432 14.221 12.6671 15.3545 13.8046 16.385C15.2523 17.6217 16.3899 18.0339 16.8035 18.24C17.2171 18.4461 17.4239 18.343 17.6308 18.1369C17.8376 17.9308 18.5615 17.1064 18.7683 16.6942C18.9751 16.282 19.2853 16.385 19.5956 16.4881C19.9058 16.5911 21.7672 17.5186 22.0774 17.7247C22.491 17.9308 22.6978 18.0339 22.8012 18.1369C22.9047 18.4461 22.9047 19.1674 22.5944 19.9918Z" fill="#7A62E6"/>
</svg>
