<svg width="33" height="33" viewBox="0 0 33 33" fill="none" xmlns="http://www.w3.org/2000/svg">
<path d="M28.1707 4.8125C25.0662 1.71875 20.9268 0 16.5575 0C7.47387 0 0.114981 7.33333 0.114981 16.3854C0.114981 19.25 0.919861 22.1146 2.29965 24.5208L0 33L8.73868 30.7083C11.1533 31.9688 13.7979 32.6562 16.5575 32.6562C25.6411 32.6562 33 25.3229 33 16.2708C32.885 12.0313 31.2753 7.90625 28.1707 4.8125ZM24.4913 22.2292C24.1463 23.1458 22.5366 24.0625 21.7317 24.1771C21.0418 24.2917 20.122 24.2917 19.2021 24.0625C18.6272 23.8333 17.8223 23.6042 16.9024 23.1458C12.7631 21.4271 10.1185 17.3021 9.8885 16.9583C9.65854 16.7292 8.16377 14.7812 8.16377 12.7187C8.16377 10.6562 9.19861 9.73958 9.54355 9.28125C9.8885 8.82292 10.3484 8.82292 10.6934 8.82292C10.9233 8.82292 11.2683 8.82292 11.4983 8.82292C11.7282 8.82292 12.0732 8.70833 12.4181 9.51042C12.7631 10.3125 13.5679 12.375 13.6829 12.4896C13.7979 12.7188 13.7979 12.9479 13.6829 13.1771C13.5679 13.4062 13.453 13.6354 13.223 13.8646C12.993 14.0937 12.7631 14.4375 12.6481 14.5521C12.4181 14.7812 12.1882 15.0104 12.4181 15.3542C12.6481 15.8125 13.453 17.0729 14.7178 18.2187C16.3275 19.5937 17.5923 20.0521 18.0523 20.2813C18.5122 20.5104 18.7422 20.3958 18.9721 20.1667C19.2021 19.9375 20.007 19.0208 20.2369 18.5625C20.4669 18.1042 20.8118 18.2188 21.1568 18.3333C21.5017 18.4479 23.5714 19.4792 23.9164 19.7083C24.3763 19.9375 24.6063 20.0521 24.7213 20.1667C24.8362 20.5104 24.8362 21.3125 24.4913 22.2292Z" fill="white"/>
</svg>
